<?xml version="1.0" encoding="UTF-8"?>
<svg width="65px" height="80px" viewBox="0 0 65 80" version="1.1" xmlns="http://www.w3.org/2000/svg" xmlns:xlink="http://www.w3.org/1999/xlink">
    <!-- Generator: Sketch 42 (36781) - http://www.bohemiancoding.com/sketch -->
    <title>Group 3</title>
    <desc>Created with Sketch.</desc>
    <defs></defs>
    <g id="Search" stroke="none" stroke-width="1" fill="none" fill-rule="evenodd">
        <g id="Markers" transform="translate(-234.000000, -84.000000)">
            <g id="Group-3" transform="translate(234.000000, 84.000000)">
                <path d="M22.98416,64.0293595 C9.67778827,59.9325105 0,47.4679793 0,32.7272727 C0,14.6524991 14.5507456,0 32.5,0 C50.4492544,0 65,14.6524991 65,32.7272727 C65,47.4679793 55.3222117,59.9325105 42.01584,64.0293595 L32.5,80 L22.98416,64.0293595 Z" id="Combined-Shape-Copy" fill="#F83618"></path>
                <g id="noun_733239_cc" transform="translate(12.000000, 19.000000)" fill-rule="nonzero" fill="#FFFFFF">
                    <g id="Artboard-40">
                        <path d="M36.5527059,1.57925926 L30.8127059,3.85185185 L16.5543529,0.0962962963 C15.6423134,-0.134185461 14.6967151,0.325554037 14.3162353,1.18444444 L14.0991765,1.66592593 C13.9655968,1.97489392 13.9607137,2.32422878 14.0856052,2.63679676 C14.2104966,2.94936475 14.4548903,3.19945669 14.7648235,3.33185185 L23.1191765,6.91407407 L13.0235294,10.9440741 C12.3813135,11.2001834 11.6719915,11.2357548 11.0072941,11.0451852 L4.61611765,9.34074074 C4.38097666,9.27907819 4.13118167,9.30831159 3.91670588,9.42259259 L1.98729412,10.4385185 C1.66061427,10.6128173 1.46276362,10.9584357 1.47818435,11.3278644 C1.49360507,11.6972931 1.71957358,12.0252842 2.05964706,12.1718519 L8.87529412,15.0944444 C10.1035629,15.6240097 11.4929716,15.641346 12.7341176,15.1425926 L24.6,10.4385185 L20.9823529,18.8451852 C20.8487733,19.1541532 20.8438901,19.503488 20.9687816,19.816056 C21.0936731,20.128624 21.3380667,20.378716 21.648,20.5111111 L22.1303529,20.7277778 C22.9990678,21.0884928 24.0017572,20.7711413 24.5035294,19.9766667 L32.2887059,7.36666667 L38.0094118,5.08925926 C38.5366504,4.86954468 38.9392218,4.42787841 39.1086839,3.8832337 C39.2781459,3.338589 39.1970693,2.74698264 38.8872941,2.26777778 C38.3706476,1.51535408 37.3960527,1.22792585 36.5527059,1.57925926 L36.5527059,1.57925926 Z" id="Shape"></path>
                        <path d="M39.2056471,22.8703704 L1.48564706,22.8703704 C0.686458538,22.8703704 0.0385882353,23.5170702 0.0385882353,24.3148148 C0.0385882353,25.1125595 0.686458538,25.7592593 1.48564706,25.7592593 L39.2056471,25.7592593 C40.0048356,25.7592593 40.6527059,25.1125595 40.6527059,24.3148148 C40.6527059,23.5170702 40.0048356,22.8703704 39.2056471,22.8703704 Z" id="Shape"></path>
                    </g>
                </g>
            </g>
        </g>
    </g>
</svg>