<?xml version="1.0" encoding="UTF-8"?>
<svg width="65px" height="80px" viewBox="0 0 65 80" version="1.1" xmlns="http://www.w3.org/2000/svg" xmlns:xlink="http://www.w3.org/1999/xlink">
    <!-- Generator: Sketch 42 (36781) - http://www.bohemiancoding.com/sketch -->
    <title>Group 2</title>
    <desc>Created with Sketch.</desc>
    <defs></defs>
    <g id="Search" stroke="none" stroke-width="1" fill="none" fill-rule="evenodd">
        <g id="Markers" transform="translate(-94.000000, -84.000000)">
            <g id="Group-2" transform="translate(94.000000, 84.000000)">
                <path d="M22.98416,64.0293595 C9.67778827,59.9325105 0,47.4679793 0,32.7272727 C0,14.6524991 14.5507456,0 32.5,0 C50.4492544,0 65,14.6524991 65,32.7272727 C65,47.4679793 55.3222117,59.9325105 42.01584,64.0293595 L32.5,80 L22.98416,64.0293595 Z" id="Combined-Shape" fill="#F83618"></path>
                <g id="noun_576678_cc" transform="translate(19.000000, 18.000000)" fill-rule="nonzero" fill="#FFFFFF">
                    <g id="Group">
                        <g id="Shape">
                            <path d="M16.689,28 L3.167,28 C2.347,28 1.578,27.598 1.111,26.923 C0.644,26.248 0.538,25.388 0.827,24.62 L7.972,5.62 C8.335,4.651 9.276,4 10.311,4 L23.834,4 C24.654,4 25.423,4.402 25.89,5.077 C26.357,5.752 26.462,6.613 26.173,7.38 L19.028,26.38 C18.664,27.35 17.724,28 16.689,28 Z M10.311,6 C10.104,6 9.916,6.13 9.843,6.324 L9.843,6.324 L2.698,25.324 C2.618,25.538 2.699,25.704 2.755,25.784 C2.811,25.865 2.938,26 3.167,26 L16.689,26 C16.896,26 17.084,25.87 17.157,25.676 L24.302,6.676 C24.382,6.463 24.301,6.296 24.245,6.216 C24.189,6.135 24.062,6 23.834,6 L10.311,6 Z"></path>
                            <path d="M13.5,21 C10.743,21 8.5,18.757 8.5,16 C8.5,13.243 10.743,11 13.5,11 C16.257,11 18.5,13.243 18.5,16 C18.5,18.757 16.257,21 13.5,21 Z M13.5,13 C11.846,13 10.5,14.346 10.5,16 C10.5,17.654 11.846,19 13.5,19 C15.154,19 16.5,17.654 16.5,16 C16.5,14.346 15.154,13 13.5,13 Z"></path>
                            <path d="M6,25 C5.881,25 5.761,24.979 5.644,24.935 C5.128,24.739 4.869,24.161 5.065,23.644 L6.04,21.085 C6.236,20.568 6.814,20.309 7.331,20.507 C7.847,20.703 8.106,21.281 7.91,21.798 L6.935,24.357 C6.783,24.755 6.403,25 6,25 Z"></path>
                            <path d="M20,11.56 C19.882,11.56 19.761,11.539 19.645,11.494 C19.128,11.297 18.87,10.72 19.066,10.203 L20.041,7.644 C20.237,7.128 20.813,6.869 21.331,7.065 C21.848,7.262 22.106,7.839 21.91,8.356 L20.935,10.915 C20.782,11.314 20.402,11.56 20,11.56 Z"></path>
                            <path d="M29.497,10 C28.944,10 28.497,9.552 28.497,9 C28.497,8.448 28.944,8 29.497,8 C29.774,8 30,7.774 30,7.497 L30,2.497 C30,2.223 29.777,2 29.503,2 L2.497,2 C2.223,2 2,2.223 2,2.497 L2,7.497 C2,7.774 2.226,8 2.503,8 C3.055,8 3.503,8.448 3.503,9 C3.503,9.552 3.055,10 2.503,10 C1.123,10 0,8.877 0,7.497 L0,2.497 C0,1.12 1.12,0 2.497,0 L29.503,0 C30.88,0 32,1.12 32,2.497 L32,7.497 C32,8.877 30.877,10 29.497,10 Z"></path>
                        </g>
                    </g>
                </g>
            </g>
        </g>
    </g>
</svg>