<?xml version="1.0" encoding="UTF-8"?>
<svg width="65px" height="80px" viewBox="0 0 65 80" version="1.1" xmlns="http://www.w3.org/2000/svg" xmlns:xlink="http://www.w3.org/1999/xlink">
    <!-- Generator: Sketch 42 (36781) - http://www.bohemiancoding.com/sketch -->
    <title>Group 6</title>
    <desc>Created with Sketch.</desc>
    <defs></defs>
    <g id="Search" stroke="none" stroke-width="1" fill="none" fill-rule="evenodd">
        <g id="Markers" transform="translate(-659.000000, -84.000000)">
            <g id="Group-6" transform="translate(659.000000, 84.000000)">
                <path d="M22.98416,64.0293595 C9.67778827,59.9325105 0,47.4679793 0,32.7272727 C0,14.6524991 14.5507456,0 32.5,0 C50.4492544,0 65,14.6524991 65,32.7272727 C65,47.4679793 55.3222117,59.9325105 42.01584,64.0293595 L32.5,80 L22.98416,64.0293595 Z" id="Combined-Shape-Copy-4" fill="#F83618"></path>
                <g id="noun_551342_cc" transform="translate(13.000000, 19.000000)" fill-rule="nonzero" fill="#FFFFFF">
                    <g id="Group">
                        <g>
                            <path d="M7.5,2.7 L12,21.6 C12.1,22.2 12.6,22.6 13.2,22.6 L31.2,22.6 C31.9,22.6 32.4,22 32.4,21.4 C32.4,20.8 31.8,20.2 31.2,20.2 L14.2,20.2 L13.4,17 L31.1,17 C31.7,17 32.3,16.5 32.3,15.9 L33.2,7.4 C33.2,7 33.1,6.7 32.9,6.4 C32.7,6.1 32.3,6 32,6 L10.8,6 L9.7,1.3 C9.6,0.7 9.1,0.3 8.5,0.3 L1.9,0.3 C1.2,0.3 0.7,0.9 0.7,1.5 C0.7,2.1 1.3,2.7 1.9,2.7 L7.5,2.7 L7.5,2.7 Z M30.7,8.4 L30,14.4 L12.9,14.4 L11.5,8.4 L30.7,8.4 Z" id="Shape"></path>
                            <circle id="Oval" cx="14" cy="27.3" r="2.4"></circle>
                            <circle id="Oval" cx="29.2" cy="27.3" r="2.4"></circle>
                        </g>
                    </g>
                </g>
            </g>
        </g>
    </g>
</svg>