<?xml version="1.0" encoding="UTF-8"?>
<svg width="65px" height="80px" viewBox="0 0 65 80" version="1.1" xmlns="http://www.w3.org/2000/svg" xmlns:xlink="http://www.w3.org/1999/xlink">
    <!-- Generator: Sketch 42 (36781) - http://www.bohemiancoding.com/sketch -->
    <title>Group 5</title>
    <desc>Created with Sketch.</desc>
    <defs></defs>
    <g id="Search" stroke="none" stroke-width="1" fill="none" fill-rule="evenodd">
        <g id="Markers" transform="translate(-514.000000, -84.000000)">
            <g id="Group-5" transform="translate(514.000000, 84.000000)">
                <path d="M22.98416,64.0293595 C9.67778827,59.9325105 0,47.4679793 0,32.7272727 C0,14.6524991 14.5507456,0 32.5,0 C50.4492544,0 65,14.6524991 65,32.7272727 C65,47.4679793 55.3222117,59.9325105 42.01584,64.0293595 L32.5,80 L22.98416,64.0293595 Z" id="Combined-Shape-Copy-3" fill="#F83618"></path>
                <g id="noun_803525_cc" transform="translate(12.000000, 9.000000)" fill-rule="nonzero" fill="#FFFFFF">
                    <g id="Group">
                        <g transform="translate(0.000000, 0.304736)" id="Shape">
                            <path d="M20.3398027,0.00124068573 C19.8976034,0.078592908 19.5439498,0.506777352 19.5505766,0.956748464 L19.5505766,4.2562818 L0.415538084,17.8427529 C0.0782987817,18.071704 -0.0816536601,18.5329029 0.0411556422,18.9221962 C0.16395541,19.3115374 0.559290806,19.5966751 0.96650662,19.5895562 L3.8255939,19.5895562 L3.81071948,41.0889542 C3.81077669,41.5892354 4.26476111,42.0444142 4.76374541,42.044462 L36.243493,42.044462 C36.7424773,42.0444142 37.1964617,41.5892354 37.1965189,41.0889542 L37.1816445,19.5895562 L40.0407318,19.5895562 C40.4265466,19.594334 40.8019683,19.337624 40.9402575,18.9764718 C41.0785467,18.6153196 40.9703877,18.1733274 40.6810469,17.9173818 L21.143951,0.240129575 C20.8663333,0.00190957462 20.7418411,-0.00477931427 20.3397837,0.00124068573 L20.3398027,0.00124068573 Z M21.4566332,3.10679624 L37.5687846,17.6785885 L36.2285852,17.6785885 C35.7296009,17.6786362 35.2756117,18.1338151 35.2755545,18.6340962 L35.2904289,40.1334942 L5.71674274,40.1334942 L5.73161715,18.6340962 C5.73155994,18.1338151 5.27757553,17.6786362 4.77858646,17.6785885 L3.95957808,17.6785885 L21.0545376,5.52549846 C21.3010144,5.35039291 21.4555319,5.05197291 21.4565951,4.74910957 L21.4566332,3.10679624 Z M11.8369987,19.111874 C11.3685165,19.1563074 10.9713218,19.595624 10.9733146,20.0674487 L10.9733146,37.2669231 C10.9734099,37.7672042 11.4273658,38.2223354 11.9263453,38.2224309 L29.0808692,38.2224309 C29.579844,38.2223354 30.0337998,37.7672042 30.0338952,37.2669231 L30.0338952,20.0674487 C30.0337998,19.5671485 29.579844,19.1119696 29.0808692,19.111874 L11.8369987,19.111874 L11.8369987,19.111874 Z M12.8793712,21.0229565 L28.1278385,21.0229565 L28.1278385,36.3114154 L12.8793712,36.3114154 L12.8793712,21.0229565 Z M18.5975459,22.9340198 L18.5975459,26.7560987 L14.7854326,26.7560987 L14.7854326,30.5782254 L18.5975459,30.5782254 L18.5975459,34.400352 L22.4096639,34.400352 L22.4096639,30.5782254 L26.2217819,30.5782254 L26.2217819,26.7560987 L22.4096639,26.7560987 L22.4096639,22.9340198 L18.5975459,22.9340198 L18.5975459,22.9340198 Z"></path>
                        </g>
                    </g>
                </g>
            </g>
        </g>
    </g>
</svg>