<?xml version="1.0" encoding="UTF-8"?>
<svg width="65px" height="80px" viewBox="0 0 65 80" version="1.1" xmlns="http://www.w3.org/2000/svg" xmlns:xlink="http://www.w3.org/1999/xlink">
    <!-- Generator: Sketch 42 (36781) - http://www.bohemiancoding.com/sketch -->
    <title>Group 8</title>
    <desc>Created with Sketch.</desc>
    <defs></defs>
    <g id="Search" stroke="none" stroke-width="1" fill="none" fill-rule="evenodd">
        <g id="Markers" transform="translate(-939.000000, -84.000000)">
            <g id="Group-8" transform="translate(939.000000, 84.000000)">
                <path d="M22.98416,64.0293595 C9.67778827,59.9325105 0,47.4679793 0,32.7272727 C0,14.6524991 14.5507456,0 32.5,0 C50.4492544,0 65,14.6524991 65,32.7272727 C65,47.4679793 55.3222117,59.9325105 42.01584,64.0293595 L32.5,80 L22.98416,64.0293595 Z" id="Combined-Shape-Copy-6" fill="#F83618"></path>
                <g id="noun_744575_cc" transform="translate(14.000000, 12.000000)" stroke-width="0.5" stroke="#FFFFFF" fill="#FFFFFF" fill-rule="nonzero">
                    <g id="Group">
                        <path d="M19.7108108,27.4818243 C20.027027,27.4818243 20.2378378,27.272837 20.2378378,26.9593561 L20.2378378,20.8464789 C23.3472973,20.4285044 25.7716216,16.0920188 25.7716216,10.6061033 C25.7716216,4.85895372 23.1364865,0.3657277 19.7108108,0.3657277 C16.2851351,0.3657277 13.65,4.85895372 13.65,10.6061033 C13.65,16.039772 16.0216216,20.3762575 19.1837838,20.8464789 L19.1837838,26.9593561 C19.1837838,27.272837 19.3945946,27.4818243 19.7108108,27.4818243 Z M14.7040541,10.6583501 C14.7040541,5.64265594 16.9702703,1.4629108 19.7108108,1.4629108 C22.4513514,1.4629108 24.7175676,5.69490275 24.7175676,10.6583501 C24.7175676,15.3083166 22.7148649,19.3313213 20.2378378,19.8015426 L20.2378378,13.8454058 L22.7675676,10.971831 C22.9783784,10.7628437 22.9256757,10.4493628 22.7148649,10.2403756 C22.5040541,10.0313883 22.1878378,10.0836351 21.977027,10.2926224 L20.2905405,12.2780013 L20.2905405,7.68028169 C20.2905405,7.3668008 20.0797297,7.15781355 19.7635135,7.15781355 C19.4472973,7.15781355 19.2364865,7.3668008 19.2364865,7.68028169 L19.2364865,15.8307847 C18.6567568,15.2038229 17.9189189,14.2633803 17.2337838,13.3751844 C17.0756757,13.1661972 16.7067568,13.1139504 16.4959459,13.2706908 C16.2851351,13.4274313 16.2324324,13.793159 16.3905405,14.0021462 C18.077027,16.1442656 18.8148649,16.9802146 19.1837838,17.3459423 L19.1837838,19.8015426 C16.7067568,19.3313213 14.7040541,15.3083166 14.7040541,10.6583501 Z" id="Shape"></path>
                        <path d="M5.42837838,18.9133467 L5.42837838,26.2801476 C5.42837838,26.5936284 5.63918919,26.8026157 5.95540541,26.8026157 L5.95540541,26.8026157 C6.27162162,26.8026157 6.48243243,26.5413816 6.48243243,26.2801476 L6.48243243,18.9133467 C7.8,18.8088531 9.06486486,18.2341382 10.0135135,17.2414487 C11.0675676,16.1442656 11.7,14.7336016 11.6472973,13.218444 C11.6472973,10.0836351 9.06486486,7.57578806 5.9027027,7.57578806 L5.9027027,7.57578806 C4.37432432,7.57578806 2.95135135,8.20274983 1.84459459,9.24768612 C0.737837838,10.2926224 0.158108108,11.7555332 0.210810811,13.2706908 C0.263513514,14.7858484 0.843243243,16.1965124 1.8972973,17.2936955 C2.84594595,18.2341382 4.05810811,18.8088531 5.42837838,18.9133467 Z M2.58243243,10.0313883 C3.47837838,9.14319249 4.63783784,8.67297116 5.85,8.67297116 L5.85,8.67297116 C8.43243243,8.67297116 10.4878378,10.7105969 10.5405405,13.2706908 C10.5405405,14.5246144 10.0662162,15.6740443 9.17027027,16.5622401 C8.43243243,17.2936955 7.43108108,17.7639168 6.37702703,17.9206573 L6.37702703,16.1442656 L6.37702703,16.1442656 L6.37702703,15.3083166 L7.69459459,14.2633803 C7.90540541,14.1066398 7.95810811,13.7409121 7.8,13.5319249 C7.64189189,13.3229376 7.27297297,13.2706908 7.06216216,13.4274313 L6.42972973,13.9498994 L6.42972973,13.1139504 L6.42972973,12.9049631 L6.42972973,11.0240778 C6.42972973,10.7105969 6.21891892,10.5016097 5.9027027,10.5016097 L5.9027027,10.5016097 C5.58648649,10.5016097 5.37567568,10.7628437 5.37567568,11.0240778 L5.37567568,11.9122736 L4.79594595,11.4420523 C4.58513514,11.2853119 4.21621622,11.2853119 4.05810811,11.5465459 C3.9,11.7555332 3.9,12.1212609 4.16351351,12.2780013 L5.42837838,13.2706908 L5.42837838,15.0993293 L4.79594595,14.629108 C4.58513514,14.4723675 4.21621622,14.4723675 4.05810811,14.7336016 C3.9,14.9425889 3.9,15.3083166 4.16351351,15.465057 L5.42837838,16.4577465 L5.42837838,17.9729041 C4.37432432,17.8684105 3.42567568,17.3981891 2.63513514,16.6667337 C1.73918919,15.7785379 1.26486486,14.629108 1.26486486,13.4274313 C1.26486486,12.0690141 1.73918919,10.9195842 2.58243243,10.0313883 Z" id="Shape"></path>
                        <path d="M33.0445946,7.62803488 C31.5162162,7.62803488 30.0932432,8.25499665 28.9864865,9.29993293 C27.9324324,10.397116 27.3,11.80778 27.3527027,13.3229376 C27.4054054,14.8380952 27.9851351,16.2487592 29.0391892,17.3459423 C29.9878378,18.286385 31.2527027,18.8610999 32.5702703,18.9655936 L32.5702703,26.3323944 C32.5702703,26.6458753 32.7810811,26.8548625 33.0972973,26.8548625 L33.0972973,26.8548625 C33.4135135,26.8548625 33.6243243,26.5936284 33.6243243,26.3323944 L33.6243243,18.9655936 C34.9418919,18.8610999 36.2067568,18.286385 37.1554054,17.2936955 C38.2094595,16.1965124 38.8418919,14.7858484 38.7891892,13.2706908 C38.7364865,11.7555332 38.1567568,10.3448692 37.1027027,9.24768612 C36.0486486,8.20274983 34.572973,7.62803488 33.0445946,7.62803488 Z M36.4175676,16.5622401 C35.6797297,17.2936955 34.6783784,17.7639168 33.6243243,17.9206573 L33.6243243,16.1442656 L33.6243243,16.1442656 L33.6243243,15.3083166 L34.9418919,14.2633803 C35.1527027,14.1066398 35.2054054,13.7409121 35.0472973,13.5319249 C34.8891892,13.3229376 34.5202703,13.2706908 34.3094595,13.4274313 L33.677027,13.9498994 L33.677027,13.1139504 L33.677027,12.9572099 L33.677027,11.0763246 C33.677027,10.7628437 33.4662162,10.5538565 33.15,10.5538565 L33.15,10.5538565 C32.8337838,10.5538565 32.622973,10.8150905 32.622973,11.0763246 L32.622973,11.9645205 L32.0432432,11.4942991 C31.8324324,11.3375587 31.4635135,11.3375587 31.3054054,11.5987928 C31.1472973,11.8600268 31.1472973,12.1735077 31.4108108,12.3302482 L32.6756757,13.3229376 L32.6756757,15.1515761 L32.0432432,14.6813548 C31.8324324,14.5246144 31.4635135,14.5246144 31.3054054,14.7858484 C31.1472973,15.0470825 31.1472973,15.3605634 31.4108108,15.5173038 L32.6756757,16.5099933 L32.6756757,18.0251509 C31.6216216,17.9206573 30.672973,17.4504359 29.8824324,16.7189805 C28.9864865,15.8307847 28.5121622,14.6813548 28.5121622,13.4796781 C28.5121622,12.2257545 28.9864865,11.0763246 29.8824324,10.1881288 C30.7783784,9.29993293 31.9378378,8.8297116 33.15,8.8297116 L33.15,8.8297116 C34.4148649,8.8297116 35.5743243,9.29993293 36.4175676,10.1881288 C37.3135135,11.0763246 37.7878378,12.2257545 37.7878378,13.4274313 C37.7878378,14.629108 37.2608108,15.6740443 36.4175676,16.5622401 Z" id="Shape"></path>
                        <path d="M36.2594595,29.7806841 C35.627027,29.7806841 35.3635135,29.5716968 34.9945946,29.3627096 C34.572973,29.1014755 34.0986486,28.7357478 33.15,28.7357478 C32.2013514,28.7357478 31.6743243,29.0492287 31.3054054,29.3627096 C30.9364865,29.6239437 30.672973,29.7806841 30.0405405,29.7806841 C29.4081081,29.7806841 29.1445946,29.5716968 28.7756757,29.3627096 C28.3540541,29.1014755 27.8797297,28.7357478 26.9310811,28.7357478 C25.9824324,28.7357478 25.4554054,29.0492287 25.0864865,29.3627096 C24.6121622,29.5716968 24.2959459,29.7806841 23.7162162,29.7806841 C23.0837838,29.7806841 22.8202703,29.5716968 22.4513514,29.3627096 C22.0297297,29.0492287 21.5027027,28.7357478 20.5540541,28.7357478 C19.6054054,28.7357478 19.0783784,29.0492287 18.7094595,29.3627096 C18.3405405,29.5716968 18.0243243,29.7806841 17.3918919,29.7806841 C16.7594595,29.7806841 16.4959459,29.5716968 16.127027,29.3627096 C15.7054054,29.1014755 15.2310811,28.7357478 14.2824324,28.7357478 C13.3337838,28.7357478 12.8067568,29.0492287 12.4378378,29.3627096 C12.0689189,29.6239437 11.8054054,29.7806841 11.172973,29.7806841 C10.5405405,29.7806841 10.277027,29.5716968 9.90810811,29.3627096 C9.43378378,29.0492287 8.95945946,28.7357478 8.01081081,28.7357478 C7.06216216,28.7357478 6.53513514,29.0492287 6.16621622,29.3627096 C5.7972973,29.5716968 5.48108108,29.7806841 4.84864865,29.7806841 C4.21621622,29.7806841 3.9527027,29.5716968 3.58378378,29.3627096 C3.16216216,29.0492287 2.68783784,28.7357478 1.73918919,28.7357478 C1.42297297,28.7357478 1.21216216,28.9447351 1.21216216,29.258216 C1.21216216,29.5716968 1.42297297,29.7806841 1.73918919,29.7806841 C2.37162162,29.7806841 2.63513514,29.9896714 3.00405405,30.1986586 C3.42567568,30.4598927 3.9,30.8256204 4.84864865,30.8256204 C5.7972973,30.8256204 6.32432432,30.5121395 6.69324324,30.1986586 C7.06216216,29.9374245 7.32567568,29.7806841 7.95810811,29.7806841 C8.59054054,29.7806841 8.85405405,29.9896714 9.22297297,30.1986586 C9.64459459,30.4598927 10.1189189,30.8256204 11.0675676,30.8256204 C12.0162162,30.8256204 12.5432432,30.5121395 12.9121622,30.1986586 C13.2810811,29.9374245 13.5445946,29.7806841 14.177027,29.7806841 C14.8094595,29.7806841 15.072973,29.9896714 15.4418919,30.1986586 C15.8635135,30.4598927 16.3378378,30.8256204 17.2864865,30.8256204 C18.2351351,30.8256204 18.7621622,30.5121395 19.1310811,30.1986586 C19.5,29.9374245 19.7635135,29.7806841 20.3959459,29.7806841 C21.0283784,29.7806841 21.2918919,29.9896714 21.6608108,30.1986586 C22.0824324,30.4598927 22.5567568,30.8256204 23.5054054,30.8256204 C24.4540541,30.8256204 24.9810811,30.5121395 25.35,30.1986586 C25.7189189,29.9374245 25.9824324,29.7806841 26.6148649,29.7806841 C27.2472973,29.7806841 27.5108108,29.9896714 27.8797297,30.1986586 C28.3013514,30.4598927 28.7756757,30.8256204 29.7243243,30.8256204 C30.672973,30.8256204 31.2,30.5121395 31.5689189,30.1986586 C31.9378378,29.9374245 32.2013514,29.7806841 32.8337838,29.7806841 C33.4662162,29.7806841 33.7297297,29.9896714 34.0986486,30.1986586 C34.7837838,30.4598927 35.3108108,30.8256204 36.2594595,30.8256204 C36.5756757,30.8256204 36.7864865,30.6166331 36.7864865,30.3031522 C36.7864865,29.9896714 36.522973,29.7806841 36.2594595,29.7806841 Z" id="Shape"></path>
                        <path d="M36.2594595,32.915493 C35.627027,32.915493 35.3635135,32.7065057 34.9945946,32.4975184 C34.572973,32.2362844 34.0986486,31.8705567 33.15,31.8705567 C32.2013514,31.8705567 31.6743243,32.1840376 31.3054054,32.4975184 C30.9364865,32.7587525 30.672973,32.915493 30.0405405,32.915493 C29.4081081,32.915493 29.1445946,32.7065057 28.7756757,32.4975184 C28.3540541,32.2362844 27.8797297,31.8705567 26.9310811,31.8705567 C25.9824324,31.8705567 25.4554054,32.1840376 25.0864865,32.4975184 C24.6121622,32.7065057 24.2959459,32.915493 23.7162162,32.915493 C23.0837838,32.915493 22.8202703,32.7065057 22.4513514,32.4975184 C22.0297297,32.1840376 21.5027027,31.8705567 20.5540541,31.8705567 C19.6054054,31.8705567 19.0783784,32.1840376 18.7094595,32.4975184 C18.3405405,32.7065057 18.0243243,32.915493 17.3918919,32.915493 C16.7594595,32.915493 16.4959459,32.7065057 16.127027,32.4975184 C15.7054054,32.2362844 15.2310811,31.8705567 14.2824324,31.8705567 C13.3337838,31.8705567 12.8067568,32.1840376 12.4378378,32.4975184 C12.0689189,32.7587525 11.8054054,32.915493 11.172973,32.915493 C10.5405405,32.915493 10.277027,32.7065057 9.90810811,32.4975184 C9.43378378,32.1840376 8.95945946,31.8705567 8.01081081,31.8705567 C7.06216216,31.8705567 6.53513514,32.1840376 6.16621622,32.4975184 C5.7972973,32.7065057 5.48108108,32.915493 4.84864865,32.915493 C4.21621622,32.915493 3.9527027,32.7065057 3.58378378,32.4975184 C3.16216216,32.1840376 2.68783784,31.8705567 1.73918919,31.8705567 C1.42297297,31.8705567 1.21216216,32.0795439 1.21216216,32.3930248 C1.21216216,32.7065057 1.42297297,32.915493 1.73918919,32.915493 C2.37162162,32.915493 2.63513514,33.1244802 3.00405405,33.3334675 C3.42567568,33.5947015 3.9,33.9604292 4.84864865,33.9604292 C5.7972973,33.9604292 6.32432432,33.6469484 6.69324324,33.3334675 C7.06216216,33.0722334 7.32567568,32.915493 7.95810811,32.915493 C8.59054054,32.915493 8.85405405,33.1244802 9.22297297,33.3334675 C9.64459459,33.5947015 10.1189189,33.9604292 11.0675676,33.9604292 C12.0162162,33.9604292 12.5432432,33.6469484 12.9121622,33.3334675 C13.2810811,33.0722334 13.5445946,32.915493 14.177027,32.915493 C14.8094595,32.915493 15.072973,33.1244802 15.4418919,33.3334675 C15.8635135,33.5947015 16.3378378,33.9604292 17.2864865,33.9604292 C18.2351351,33.9604292 18.7621622,33.6469484 19.1310811,33.3334675 C19.5,33.0722334 19.7635135,32.915493 20.3959459,32.915493 C21.0283784,32.915493 21.2918919,33.1244802 21.6608108,33.3334675 C22.0824324,33.5947015 22.5567568,33.9604292 23.5054054,33.9604292 C24.4540541,33.9604292 24.9810811,33.6469484 25.35,33.3334675 C25.7189189,33.0722334 25.9824324,32.915493 26.6148649,32.915493 C27.2472973,32.915493 27.5108108,33.1244802 27.8797297,33.3334675 C28.3013514,33.5947015 28.7756757,33.9604292 29.7243243,33.9604292 C30.672973,33.9604292 31.2,33.6469484 31.5689189,33.3334675 C31.9378378,33.0722334 32.2013514,32.915493 32.8337838,32.915493 C33.4662162,32.915493 33.7297297,33.1244802 34.0986486,33.3334675 C34.7837838,33.5947015 35.3108108,33.9604292 36.2594595,33.9604292 C36.5756757,33.9604292 36.7864865,33.751442 36.7864865,33.4379611 C36.7864865,33.1244802 36.522973,32.915493 36.2594595,32.915493 Z" id="Shape"></path>
                        <path d="M36.2594595,36.0503018 C35.627027,36.0503018 35.3635135,35.8413146 34.9945946,35.6323273 C34.572973,35.3710932 34.0986486,35.0053655 33.15,35.0053655 C32.2013514,35.0053655 31.6743243,35.3188464 31.3054054,35.6323273 C30.9364865,35.8935614 30.672973,36.0503018 30.0405405,36.0503018 C29.4081081,36.0503018 29.1445946,35.8413146 28.7756757,35.6323273 C28.3540541,35.3710932 27.8797297,35.0053655 26.9310811,35.0053655 C25.9824324,35.0053655 25.4554054,35.3188464 25.0864865,35.6323273 C24.6121622,35.8413146 24.2959459,36.0503018 23.7162162,36.0503018 C23.0837838,36.0503018 22.8202703,35.8413146 22.4513514,35.6323273 C22.0297297,35.3188464 21.5027027,35.0053655 20.5540541,35.0053655 C19.6054054,35.0053655 19.0783784,35.3188464 18.7094595,35.6323273 C18.3405405,35.8413146 18.0243243,36.0503018 17.3918919,36.0503018 C16.7594595,36.0503018 16.4959459,35.8413146 16.127027,35.6323273 C15.7054054,35.3710932 15.2310811,35.0053655 14.2824324,35.0053655 C13.3337838,35.0053655 12.8067568,35.3188464 12.4378378,35.6323273 C12.0689189,35.8935614 11.8054054,36.0503018 11.172973,36.0503018 C10.5405405,36.0503018 10.277027,35.8413146 9.90810811,35.6323273 C9.43378378,35.3188464 8.95945946,35.0053655 8.01081081,35.0053655 C7.06216216,35.0053655 6.53513514,35.3188464 6.16621622,35.6323273 C5.7972973,35.8413146 5.48108108,36.0503018 4.84864865,36.0503018 C4.21621622,36.0503018 3.9527027,35.8413146 3.58378378,35.6323273 C3.16216216,35.3188464 2.68783784,35.0053655 1.73918919,35.0053655 C1.42297297,35.0053655 1.21216216,35.2143528 1.21216216,35.5278337 C1.21216216,35.8413146 1.42297297,36.0503018 1.73918919,36.0503018 C2.37162162,36.0503018 2.63513514,36.2592891 3.00405405,36.4682763 C3.42567568,36.7295104 3.9,37.0952381 4.84864865,37.0952381 C5.7972973,37.0952381 6.32432432,36.7817572 6.69324324,36.4682763 C7.06216216,36.2070423 7.32567568,36.0503018 7.95810811,36.0503018 C8.59054054,36.0503018 8.85405405,36.2592891 9.22297297,36.4682763 C9.64459459,36.7295104 10.1189189,37.0952381 11.0675676,37.0952381 C12.0162162,37.0952381 12.5432432,36.7817572 12.9121622,36.4682763 C13.2810811,36.2070423 13.5445946,36.0503018 14.177027,36.0503018 C14.8094595,36.0503018 15.072973,36.2592891 15.4418919,36.4682763 C15.8635135,36.7295104 16.3378378,37.0952381 17.2864865,37.0952381 C18.2351351,37.0952381 18.7621622,36.7817572 19.1310811,36.4682763 C19.5,36.2070423 19.7635135,36.0503018 20.3959459,36.0503018 C21.0283784,36.0503018 21.2918919,36.2592891 21.6608108,36.4682763 C22.0824324,36.7295104 22.5567568,37.0952381 23.5054054,37.0952381 C24.4540541,37.0952381 24.9810811,36.7817572 25.35,36.4682763 C25.7189189,36.2070423 25.9824324,36.0503018 26.6148649,36.0503018 C27.2472973,36.0503018 27.5108108,36.2592891 27.8797297,36.4682763 C28.3013514,36.7295104 28.7756757,37.0952381 29.7243243,37.0952381 C30.672973,37.0952381 31.2,36.7817572 31.5689189,36.4682763 C31.9378378,36.2070423 32.2013514,36.0503018 32.8337838,36.0503018 C33.4662162,36.0503018 33.7297297,36.2592891 34.0986486,36.4682763 C34.7837838,36.7295104 35.3108108,37.0952381 36.2594595,37.0952381 C36.5756757,37.0952381 36.7864865,36.8862508 36.7864865,36.57277 C36.7864865,36.2592891 36.522973,36.0503018 36.2594595,36.0503018 Z" id="Shape"></path>
                    </g>
                </g>
            </g>
        </g>
    </g>
</svg>