<?xml version="1.0" encoding="UTF-8"?>
<svg width="65px" height="80px" viewBox="0 0 65 80" version="1.1" xmlns="http://www.w3.org/2000/svg" xmlns:xlink="http://www.w3.org/1999/xlink">
    <!-- Generator: Sketch 42 (36781) - http://www.bohemiancoding.com/sketch -->
    <title>Group 3</title>
    <desc>Created with Sketch.</desc>
    <defs></defs>
    <g id="Search" stroke="none" stroke-width="1" fill="none" fill-rule="evenodd">
        <g id="Markers" transform="translate(-1220.000000, -84.000000)">
            <g id="Group-3" transform="translate(1220.000000, 84.000000)">
                <path d="M22.98416,64.0293595 C9.67778827,59.9325105 0,47.4679793 0,32.7272727 C0,14.6524991 14.5507456,0 32.5,0 C50.4492544,0 65,14.6524991 65,32.7272727 C65,47.4679793 55.3222117,59.9325105 42.01584,64.0293595 L32.5,80 L22.98416,64.0293595 Z" id="Combined-Shape-Copy-8" fill="#F83618"></path>
                <g id="noun_155" transform="translate(22.000000, 14.000000)" fill-rule="nonzero" fill="#FFFFFF">
                    <path d="M18.7865418,33.42132 L16.6054917,33.42132 L16.6054917,15.56532 C17.2312385,15.56532 17.1826579,15.85152 17.1826579,16.0416 L17.1826579,29.9358 C17.1826579,31.74984 18.5291373,32.99112 20.1152567,32.99112 C21.7503192,32.99112 23,31.70232 23,29.98368 C23,28.26396 20.6927854,23.29956 20.6927854,21.67632 L20.6927854,8.40312 C20.6927854,7.40016 20.3081288,6.54048 19.7791807,6.11064 L16.6054917,3.53304 L16.6054917,1.4796 C16.6054917,0.66924 15.932252,0 15.1147208,0 L3.67145852,0 C2.85428981,0 2.18105011,0.66924 2.18105011,1.4796 L2.18105011,33.42132 L0,33.42132 L0,36 L18.7865418,36 L18.7865418,33.42132 Z M13.7203859,10.02636 L5.06615596,10.02636 C4.6811368,10.02636 4.29720528,9.69192 4.29720528,9.26316 L4.29720528,2.67372 C4.29720528,2.24496 4.6811368,1.91016 5.06615596,1.91016 L13.7203859,1.91016 C14.105405,1.91016 14.4900616,2.24496 14.4900616,2.67372 L14.4900616,9.26352 C14.4900616,9.69192 14.105405,10.02636 13.7203859,10.02636 Z M20.1152567,31.60728 C19.2012894,31.60728 18.6248483,30.93912 18.6248483,29.9358 L18.6248483,14.60988 C18.6248483,14.08464 18.0001892,13.8456 17.423748,13.8456 L16.6058543,13.8456 L16.6058543,5.49072 C16.9905109,5.77692 17.2783689,6.111 17.2783689,6.49368 L17.2783689,9.26316 L19.2016519,9.26316 L19.2016519,21.1986 C19.2016519,24.20568 21.6063902,28.26396 21.6063902,29.98368 C21.6063902,30.89124 21.0288615,31.60728 20.1152567,31.60728 Z" id="Shape"></path>
                </g>
            </g>
        </g>
    </g>
</svg>