<?xml version="1.0" encoding="UTF-8"?>
<svg width="65px" height="80px" viewBox="0 0 65 80" version="1.1" xmlns="http://www.w3.org/2000/svg" xmlns:xlink="http://www.w3.org/1999/xlink">
    <!-- Generator: Sketch 42 (36781) - http://www.bohemiancoding.com/sketch -->
    <title>Group 2</title>
    <desc>Created with Sketch.</desc>
    <defs></defs>
    <g id="Search" stroke="none" stroke-width="1" fill="none" fill-rule="evenodd">
        <g id="Markers" transform="translate(-1080.000000, -84.000000)">
            <g id="Group-2" transform="translate(1080.000000, 84.000000)">
                <path d="M22.98416,64.0293595 C9.67778827,59.9325105 0,47.4679793 0,32.7272727 C0,14.6524991 14.5507456,0 32.5,0 C50.4492544,0 65,14.6524991 65,32.7272727 C65,47.4679793 55.3222117,59.9325105 42.01584,64.0293595 L32.5,80 L22.98416,64.0293595 Z" id="Combined-Shape-Copy-7" fill="#F83618"></path>
                <g id="noun_24" transform="translate(21.000000, 13.000000)" fill-rule="nonzero" fill="#FFFFFF">
                    <g id="Group">
                        <path d="M17.3237507,38.820505 C17.3151404,39.8556535 18.1536261,40.6979802 19.1967105,40.706505 C20.2414351,40.7150297 21.0926313,39.886099 21.1012417,38.8525743 L21.4116249,2.15432673 C21.4267956,0.339772277 20.2352848,0.13639604 19.4013093,0.12990099 C18.5640536,0.123 17.0162376,2.4490396 16.6652627,4.59524752 C16.3110076,6.73942574 14.2162283,17.7980594 17.5361398,19.9751188 L17.3237507,38.820505 L17.3237507,38.820505 L17.3237507,38.820505 Z" id="Shape"></path>
                        <path d="M2.0041654,38.7478416 L2.2575562,15.1091089 C0.898758299,15.0981485 0.230429819,13.495901 0,12.3365347 L0.82249505,0.112851485 L1.93528247,9.97964356 L2.9779569,0.12990099 L4.08951427,9.99750495 L5.37040885,0.149792079 L6.24415609,10.0153663 L7.5234106,0.167653465 L8.13720676,12.4039208 C7.89037624,13.5592277 7.29093069,15.1505149 5.92885265,15.1395545 L5.78411648,38.7786931 C5.77550612,39.8130297 4.92061969,40.6419604 3.87794525,40.6330297 C2.8348608,40.624505 1.99596506,39.7821782 2.0041654,38.7478416 L2.0041654,38.7478416 L2.0041654,38.7478416 Z" id="Shape"></path>
                    </g>
                </g>
            </g>
        </g>
    </g>
</svg>