<?xml version="1.0" encoding="UTF-8"?>
<svg width="65px" height="80px" viewBox="0 0 65 80" version="1.1" xmlns="http://www.w3.org/2000/svg" xmlns:xlink="http://www.w3.org/1999/xlink">
    <!-- Generator: Sketch 42 (36781) - http://www.bohemiancoding.com/sketch -->
    <title>Group 4</title>
    <desc>Created with Sketch.</desc>
    <defs></defs>
    <g id="Search" stroke="none" stroke-width="1" fill="none" fill-rule="evenodd">
        <g id="Markers" transform="translate(-374.000000, -84.000000)">
            <g id="Group-4" transform="translate(374.000000, 84.000000)">
                <path d="M22.98416,64.0293595 C9.67778827,59.9325105 0,47.4679793 0,32.7272727 C0,14.6524991 14.5507456,0 32.5,0 C50.4492544,0 65,14.6524991 65,32.7272727 C65,47.4679793 55.3222117,59.9325105 42.01584,64.0293595 L32.5,80 L22.98416,64.0293595 Z" id="Combined-Shape-Copy-2" fill="#F83618"></path>
                <g id="noun_23694_cc" transform="translate(11.000000, 18.000000)" fill-rule="nonzero" fill="#FFFFFF">
                    <g id="Group">
                        <polygon id="Shape" points="7.27195699 0 0 0 0 1.45882353 0 4.74607843 0 24.9553922 0.605913978 24.9553922 0.605913978 4.74607843 7.27195699 4.74607843"></polygon>
                        <path d="M18.2323226,12.5838235 L18.2323226,7.50931373 L18.8951183,7.50931373 L18.8951183,6.26372549 L1.60851613,6.26372549 L1.60851613,7.50931373 L2.6783871,7.50931373 L2.6783871,24.9553922 L5.79154839,24.9553922 L6.68483871,24.9553922 L14.4954409,24.9553922 L15.1097634,24.9553922 L16.8181935,24.9553922 L18.231828,24.9553922 L45.3965591,24.9553922 L45.3965591,13.829902 L45.8694194,13.829902 L45.8694194,12.5838235 L18.2323226,12.5838235 Z M10.7738925,9.18823529 L13.3246667,9.18823529 L13.3246667,11.4573529 L10.7738925,11.4573529 L10.7738925,9.18823529 Z M7.50047312,9.18823529 L10.0517419,9.18823529 L10.0517419,11.4573529 L7.50047312,11.4573529 L7.50047312,9.18823529 Z M4.22754839,11.4573529 L4.22754839,9.18823529 L6.77832258,9.18823529 L6.77832258,11.4573529 L4.22754839,11.4573529 L4.22754839,11.4573529 Z M6.68533333,24.4068627 L6.68533333,16.7627451 L14.4959355,16.7627451 L14.4959355,24.4068627 L6.68533333,24.4068627 Z M16.598086,11.4573529 L14.0468172,11.4573529 L14.0468172,9.18823529 L16.598086,9.18823529 L16.598086,11.4573529 Z M25.349957,21.3 L18.8951183,21.3 L18.8951183,16.7627451 L25.349957,16.7627451 L25.349957,21.3 L25.349957,21.3 Z M35.4106022,21.3 L27.0737204,21.3 L27.0737204,16.7627451 L35.4101075,16.7627451 L35.4101075,21.3 L35.4106022,21.3 Z M43.5748602,21.3 L37.1195269,21.3 L37.1195269,16.7627451 L43.5748602,16.7627451 L43.5748602,21.3 L43.5748602,21.3 Z" id="Shape"></path>
                    </g>
                </g>
            </g>
        </g>
    </g>
</svg>