<?xml version="1.0" encoding="UTF-8"?>
<svg width="65px" height="80px" viewBox="0 0 65 80" version="1.1" xmlns="http://www.w3.org/2000/svg" xmlns:xlink="http://www.w3.org/1999/xlink">
    <!-- Generator: Sketch 42 (36781) - http://www.bohemiancoding.com/sketch -->
    <title>Group 7</title>
    <desc>Created with Sketch.</desc>
    <defs></defs>
    <g id="Search" stroke="none" stroke-width="1" fill="none" fill-rule="evenodd">
        <g id="Markers" transform="translate(-799.000000, -84.000000)">
            <g id="Group-7" transform="translate(799.000000, 84.000000)">
                <path d="M22.98416,64.0293595 C9.67778827,59.9325105 0,47.4679793 0,32.7272727 C0,14.6524991 14.5507456,0 32.5,0 C50.4492544,0 65,14.6524991 65,32.7272727 C65,47.4679793 55.3222117,59.9325105 42.01584,64.0293595 L32.5,80 L22.98416,64.0293595 Z" id="Combined-Shape-Copy-5" fill="#F83618"></path>
                <g id="noun_840731_cc" transform="translate(11.000000, 18.000000)" fill-rule="nonzero" fill="#FFFFFF">
                    <g id="Group">
                        <path d="M46.5679917,11.3796667 L42.752375,3.39577778 C42.6047167,1.59988889 41.0854417,0.183166667 39.2395167,0.183166667 L0.441408333,0.183166667 L0.441408333,2.5165 L39.2395167,2.5165 C39.8873333,2.5165 40.4145167,3.03994444 40.4145167,3.68316667 C40.4145167,3.85622222 40.4529,4.02694444 40.5277083,4.18327778 L40.6393333,4.41661111 L38.0880167,4.41661111 C37.4386333,4.41661111 36.9130167,4.93888889 36.9130167,5.58327778 L36.9130167,13.3610556 C36.9130167,14.0054444 37.4386333,14.5277222 38.0880167,14.5277222 L44.331575,14.5277222 L44.331575,20.0763889 C44.331575,20.7196111 43.8043917,21.2430556 43.156575,21.2430556 L0.441408333,21.2430556 L0.441408333,23.5763889 L3.86065833,23.5763889 C3.91745,24.2740556 4.14618333,24.9231111 4.50495,25.4838889 L0.441408333,25.4838889 L0.441408333,27.8172222 L45.5069667,27.8172222 L45.5069667,25.4838889 L38.6014917,25.4838889 C38.9602583,24.9231111 39.1889917,24.2740556 39.2457833,23.5763889 L43.1569667,23.5763889 C45.1008083,23.5763889 46.6819667,22.0064444 46.6819667,20.0763889 L46.6819667,11.8797778 C46.6819667,11.7067222 46.6428,11.536 46.5679917,11.3796667 Z M8.09026667,25.1167778 C7.16240833,25.1167778 6.39121667,24.451 6.22789167,23.576 L9.95185833,23.576 C9.78853333,24.451 9.01773333,25.1167778 8.09026667,25.1167778 Z M14.23395,25.1167778 C13.3060917,25.1167778 12.5349,24.451 12.371575,23.576 L16.0955417,23.576 C15.9322167,24.451 15.1614167,25.1167778 14.23395,25.1167778 Z M17.818875,25.4835 C18.17725,24.9227222 18.4059833,24.2736667 18.462775,23.576 L24.6436667,23.576 C24.7004583,24.2736667 24.9291917,24.9227222 25.2879583,25.4835 L17.818875,25.4835 Z M28.873275,25.1167778 C27.9454167,25.1167778 27.174225,24.451 27.0105083,23.576 L30.734475,23.576 C30.5715417,24.451 29.80035,25.1167778 28.873275,25.1167778 Z M35.0169583,25.1167778 C34.0891,25.1167778 33.3179083,24.451 33.1541917,23.576 L36.8781583,23.576 C36.715225,24.451 35.9440333,25.1167778 35.0169583,25.1167778 Z M44.3319667,12.194 L39.2634083,12.194 L39.2634083,6.74955556 L41.7548,6.74955556 L44.3319667,12.1422778 L44.3319667,12.194 Z" id="Shape"></path>
                        <path d="M1.493425,14.5273333 L9.32675833,14.5273333 C9.97575,14.5273333 10.5017583,14.0050556 10.5017583,13.3606667 L10.5017583,5.58288889 C10.5017583,4.9385 9.97575,4.41622222 9.32675833,4.41622222 L1.493425,4.41622222 C0.844433333,4.41622222 0.318425,4.9385 0.318425,5.58288889 L0.318425,13.3606667 C0.318425,14.0054444 0.844041667,14.5273333 1.493425,14.5273333 Z M2.668425,6.74955556 L8.15175833,6.74955556 L8.15175833,12.194 L2.668425,12.194 L2.668425,6.74955556 L2.668425,6.74955556 Z" id="Shape"></path>
                        <path d="M20.8319667,14.5273333 C21.4809583,14.5273333 22.0069667,14.0050556 22.0069667,13.3606667 L22.0069667,5.58288889 C22.0069667,4.9385 21.4809583,4.41622222 20.8319667,4.41622222 L12.9986333,4.41622222 C12.3496417,4.41622222 11.8236333,4.9385 11.8236333,5.58288889 L11.8236333,13.3606667 C11.8236333,14.0050556 12.3496417,14.5273333 12.9986333,14.5273333 L20.8319667,14.5273333 Z M14.1736333,6.74955556 L19.6569667,6.74955556 L19.6569667,12.194 L14.1736333,12.194 L14.1736333,6.74955556 Z" id="Shape"></path>
                        <path d="M32.3363917,14.5273333 C32.9849917,14.5273333 33.5113917,14.0050556 33.5113917,13.3606667 L33.5113917,5.58288889 C33.5113917,4.9385 32.9849917,4.41622222 32.3363917,4.41622222 L24.5030583,4.41622222 C23.853675,4.41622222 23.3280583,4.9385 23.3280583,5.58288889 L23.3280583,13.3606667 C23.3280583,14.0050556 23.853675,14.5273333 24.5030583,14.5273333 L32.3363917,14.5273333 Z M25.6780583,6.74955556 L31.1613917,6.74955556 L31.1613917,12.194 L25.6780583,12.194 L25.6780583,6.74955556 Z" id="Shape"></path>
                    </g>
                </g>
            </g>
        </g>
    </g>
</svg>