<?xml version="1.0" encoding="UTF-8"?>
<svg width="24px" height="30px" viewBox="0 0 24 30" version="1.1" xmlns="http://www.w3.org/2000/svg" xmlns:xlink="http://www.w3.org/1999/xlink">
    <!-- Generator: Sketch 42 (36781) - http://www.bohemiancoding.com/sketch -->
    <title>Group 7</title>
    <desc>Created with Sketch.</desc>
    <defs></defs>
    <g id="Page-1" stroke="none" stroke-width="1" fill="none" fill-rule="evenodd">
        <g id="Explore-Neighborhood" transform="translate(-249.000000, -421.000000)">
            <g id="Group-7" transform="translate(249.000000, 421.000000)">
                <path d="M8.48645908,24.0110098 C3.57333721,22.4746914 0,17.8004922 0,12.2727273 C0,5.49468716 5.372583,0 12,0 C18.627417,0 24,5.49468716 24,12.2727273 C24,17.8004922 20.4266628,22.4746914 15.5135409,24.0110098 L12,30 L8.48645908,24.0110098 Z" id="Combined-Shape" fill="#393939"></path>
                <g id="Group-2" transform="translate(6.000000, 8.000000)" fill-rule="nonzero" fill="#FFFFFF">
                    <g id="noun_733239_cc" transform="translate(0.000000, 0.000236)">
                        <g id="Artboard-40">
                            <path d="M10.6983529,0.516315007 L9.01835294,1.25930489 L4.84517647,0.0314826224 C4.57823807,-0.0438699136 4.30147758,0.106434984 4.19011765,0.387236255 L4.12658824,0.544649367 C4.08749176,0.645661794 4.08606254,0.75987156 4.12261614,0.862060951 C4.15916975,0.964250342 4.23069959,1.04601413 4.32141176,1.08929873 L6.76658824,2.26045229 L3.81176471,3.57800003 C3.62379907,3.6617311 3.41619262,3.67336064 3.22164706,3.61105679 L1.35105882,3.05381437 C1.28223707,3.03365473 1.20912634,3.04321215 1.14635294,3.0805746 L0.581647059,3.41271626 C0.486033446,3.46970064 0.428125938,3.58269534 0.432639321,3.70347449 C0.437152704,3.82425365 0.503289829,3.93148539 0.602823529,3.97940347 L2.59764706,4.93490106 C2.95714037,5.10803444 3.36379656,5.11370226 3.72705882,4.95064237 L7.2,3.41271626 L6.14117647,6.1611492 C6.10208,6.26216162 6.10065077,6.37637139 6.13720438,6.47856078 C6.17375798,6.58075017 6.24528783,6.66251396 6.336,6.70579856 L6.47717647,6.77663446 C6.73143446,6.8945648 7.02490454,6.7908115 7.17176471,6.53107001 L9.45035294,2.40842061 L11.1247059,1.66385659 C11.2790196,1.59202422 11.3968454,1.44762809 11.4464441,1.26956472 C11.4960427,1.09150134 11.472313,0.898084562 11.3816471,0.741415757 C11.2304334,0.495422173 10.9451862,0.401451844 10.6983529,0.516315007 L10.6983529,0.516315007 Z" id="Shape"></path>
                            <path d="M11.4748235,7.47712281 L0.434823529,7.47712281 C0.200914694,7.47712281 0.0112941176,7.68855156 0.0112941176,7.94936215 C0.0112941176,8.21017273 0.200914694,8.42160148 0.434823529,8.42160148 L11.4748235,8.42160148 C11.7087324,8.42160148 11.8983529,8.21017273 11.8983529,7.94936215 C11.8983529,7.68855156 11.7087324,7.47712281 11.4748235,7.47712281 Z" id="Shape"></path>
                        </g>
                    </g>
                </g>
            </g>
        </g>
    </g>
</svg>