<?xml version="1.0" encoding="UTF-8"?>
<svg width="24px" height="30px" viewBox="0 0 24 30" version="1.1" xmlns="http://www.w3.org/2000/svg" xmlns:xlink="http://www.w3.org/1999/xlink">
    <!-- Generator: Sketch 42 (36781) - http://www.bohemiancoding.com/sketch -->
    <title>Group 5</title>
    <desc>Created with Sketch.</desc>
    <defs></defs>
    <g id="Page-1" stroke="none" stroke-width="1" fill="none" fill-rule="evenodd">
        <g id="Explore-Neighborhood" transform="translate(-141.000000, -406.000000)">
            <g id="Group-5" transform="translate(141.000000, 406.000000)">
                <path d="M8.48645908,24.0110098 C3.57333721,22.4746914 0,17.8004922 0,12.2727273 C0,5.49468716 5.372583,0 12,0 C18.627417,0 24,5.49468716 24,12.2727273 C24,17.8004922 20.4266628,22.4746914 15.5135409,24.0110098 L12,30 L8.48645908,24.0110098 Z" id="Combined-Shape" fill="#393939"></path>
                <path d="M8.48645908,24.0110098 C3.57333721,22.4746914 0,17.8004922 0,12.2727273 C0,5.49468716 5.372583,0 12,0 C18.627417,0 24,5.49468716 24,12.2727273 C24,17.8004922 20.4266628,22.4746914 15.5135409,24.0110098 L12,30 L8.48645908,24.0110098 Z" id="Combined-Shape" fill="#393939"></path>
                <g id="Group" transform="translate(7.015385, 6.750000)" fill-rule="nonzero" fill="#FFFFFF">
                    <g id="Shape">
                        <path d="M6.16209231,10.5 L1.16935385,10.5 C0.866584615,10.5 0.582646154,10.34925 0.410215385,10.096125 C0.237784615,9.843 0.198646154,9.5205 0.305353846,9.2325 L2.94350769,2.1075 C3.07753846,1.744125 3.42498462,1.5 3.80713846,1.5 L8.80024615,1.5 C9.10301538,1.5 9.38695385,1.65075 9.55938462,1.903875 C9.73181538,2.157 9.77058462,2.479875 9.66387692,2.7675 L7.02572308,9.8925 C6.89132308,10.25625 6.54424615,10.5 6.16209231,10.5 Z M3.80713846,2.25 C3.73070769,2.25 3.66129231,2.29875 3.63433846,2.3715 L3.63433846,2.3715 L0.996184615,9.4965 C0.966646154,9.57675 0.996553846,9.639 1.01723077,9.669 C1.03790769,9.699375 1.0848,9.75 1.16935385,9.75 L6.16209231,9.75 C6.23852308,9.75 6.30793846,9.70125 6.33489231,9.6285 L8.97304615,2.5035 C9.00258462,2.423625 8.97267692,2.361 8.952,2.331 C8.93132308,2.300625 8.88443077,2.25 8.80024615,2.25 L3.80713846,2.25 Z"></path>
                        <path d="M4.98461538,7.875 C3.96664615,7.875 3.13846154,7.033875 3.13846154,6 C3.13846154,4.966125 3.96664615,4.125 4.98461538,4.125 C6.00258462,4.125 6.83076923,4.966125 6.83076923,6 C6.83076923,7.033875 6.00258462,7.875 4.98461538,7.875 Z M4.98461538,4.875 C4.37390769,4.875 3.87692308,5.37975 3.87692308,6 C3.87692308,6.62025 4.37390769,7.125 4.98461538,7.125 C5.59532308,7.125 6.09230769,6.62025 6.09230769,6 C6.09230769,5.37975 5.59532308,4.875 4.98461538,4.875 Z"></path>
                        <path d="M2.21538462,9.375 C2.17144615,9.375 2.12713846,9.367125 2.08393846,9.350625 C1.89341538,9.277125 1.79778462,9.060375 1.87015385,8.8665 L2.23015385,7.906875 C2.30252308,7.713 2.51593846,7.615875 2.70683077,7.690125 C2.89735385,7.763625 2.99298462,7.980375 2.92061538,8.17425 L2.56061538,9.133875 C2.50449231,9.283125 2.36418462,9.375 2.21538462,9.375 Z"></path>
                        <path d="M7.38461538,4.335 C7.34104615,4.335 7.29636923,4.327125 7.25353846,4.31025 C7.06264615,4.236375 6.96738462,4.02 7.03975385,3.826125 L7.39975385,2.8665 C7.47212308,2.673 7.6848,2.575875 7.87606154,2.649375 C8.06695385,2.72325 8.16221538,2.939625 8.08984615,3.1335 L7.72984615,4.093125 C7.67335385,4.24275 7.53304615,4.335 7.38461538,4.335 Z"></path>
                        <path d="M10.8912,3.75 C10.6870154,3.75 10.5219692,3.582 10.5219692,3.375 C10.5219692,3.168 10.6870154,3 10.8912,3 C10.9934769,3 11.0769231,2.91525 11.0769231,2.811375 L11.0769231,0.936375 C11.0769231,0.833625 10.9945846,0.75 10.8934154,0.75 L0.921969231,0.75 C0.8208,0.75 0.738461538,0.833625 0.738461538,0.936375 L0.738461538,2.811375 C0.738461538,2.91525 0.821907692,3 0.924184615,3 C1.128,3 1.29341538,3.168 1.29341538,3.375 C1.29341538,3.582 1.128,3.75 0.924184615,3.75 C0.414646154,3.75 0,3.328875 0,2.811375 L0,0.936375 C0,0.42 0.413538462,0 0.921969231,0 L10.8934154,0 C11.4018462,0 11.8153846,0.42 11.8153846,0.936375 L11.8153846,2.811375 C11.8153846,3.328875 11.4007385,3.75 10.8912,3.75 Z"></path>
                    </g>
                </g>
            </g>
        </g>
    </g>
</svg>