<?xml version="1.0" encoding="UTF-8"?>
<svg width="24px" height="30px" viewBox="0 0 24 30" version="1.1" xmlns="http://www.w3.org/2000/svg" xmlns:xlink="http://www.w3.org/1999/xlink">
    <!-- Generator: Sketch 42 (36781) - http://www.bohemiancoding.com/sketch -->
    <title>Group 11</title>
    <desc>Created with Sketch.</desc>
    <defs></defs>
    <g id="Page-1" stroke="none" stroke-width="1" fill="none" fill-rule="evenodd">
        <g id="Explore-Neighborhood" transform="translate(-276.000000, -468.000000)">
            <g id="Group-11" transform="translate(276.000000, 468.000000)">
                <path d="M8.48645908,24.0110098 C3.57333721,22.4746914 0,17.8004922 0,12.2727273 C0,5.49468716 5.372583,0 12,0 C18.627417,0 24,5.49468716 24,12.2727273 C24,17.8004922 20.4266628,22.4746914 15.5135409,24.0110098 L12,30 L8.48645908,24.0110098 Z" id="Combined-Shape" fill="#393939"></path>
                <g id="Group-14" transform="translate(5.000000, 7.000000)" fill-rule="nonzero" fill="#FFFFFF">
                    <g id="noun_551342_cc" transform="translate(0.096000, 0.116364)">
                        <g id="Group">
                            <g>
                                <path d="M2.54769231,0.903272727 L4.07630769,7.22618182 C4.11027692,7.42690909 4.28012308,7.56072727 4.48393846,7.56072727 L10.5984,7.56072727 C10.8361846,7.56072727 11.0060308,7.36 11.0060308,7.15927273 C11.0060308,6.95854545 10.8022154,6.75781818 10.5984,6.75781818 L4.82363077,6.75781818 L4.55187692,5.68727273 L10.5644308,5.68727273 C10.7682462,5.68727273 10.9720615,5.52 10.9720615,5.31927273 L11.2777846,2.47563636 C11.2777846,2.34181818 11.2438154,2.24145455 11.1758769,2.14109091 C11.1079385,2.04072727 10.9720615,2.00727273 10.8701538,2.00727273 L3.66867692,2.00727273 L3.29501538,0.434909091 C3.26104615,0.234181818 3.0912,0.100363636 2.88738462,0.100363636 L0.645415385,0.100363636 C0.407630769,0.100363636 0.237784615,0.301090909 0.237784615,0.501818182 C0.237784615,0.702545455 0.4416,0.903272727 0.645415385,0.903272727 L2.54769231,0.903272727 L2.54769231,0.903272727 Z M10.4285538,2.81018182 L10.1907692,4.81745455 L4.38203077,4.81745455 L3.90646154,2.81018182 L10.4285538,2.81018182 Z" id="Shape"></path>
                                <ellipse id="Oval" cx="4.75569231" cy="9.13309091" rx="0.815261538" ry="0.802909091"></ellipse>
                                <ellipse id="Oval" cx="9.91901538" cy="9.13309091" rx="0.815261538" ry="0.802909091"></ellipse>
                            </g>
                        </g>
                    </g>
                </g>
            </g>
        </g>
    </g>
</svg>