<?xml version="1.0" encoding="UTF-8"?>
<svg width="36px" height="44px" viewBox="0 0 36 44" version="1.1" xmlns="http://www.w3.org/2000/svg" xmlns:xlink="http://www.w3.org/1999/xlink">
    <!-- Generator: Sketch 42 (36781) - http://www.bohemiancoding.com/sketch -->
    <title>map_marker@vector</title>
    <desc>Created with Sketch.</desc>
    <defs></defs>
    <g id="Search" stroke="none" stroke-width="1" fill="none" fill-rule="evenodd">
        <g id="Property-Score-Popup" transform="translate(-682.000000, -438.000000)">
            <g id="map_marker" transform="translate(682.000000, 438.000000)">
                <path d="M12.7296886,35.2161477 C5.36000581,32.9628808 0,26.1073886 0,18 C0,8.0588745 8.0588745,0 18,0 C27.9411255,0 36,8.0588745 36,18 C36,26.1073886 30.6399942,32.9628808 23.2703114,35.2161477 L18,44 L12.7296886,35.2161477 Z" id="Combined-Shape" fill="#F83618"></path>
                <g id="Page-1" transform="translate(9.500000, 9.000000)" fill="#FEFEFE">
                    <path d="M14.4300117,7.73755323 C12.4690101,5.77915176 10.5793502,3.89802354 8.70025331,2.00633221 C8.50369812,1.80839569 8.41821814,1.92361489 8.28747929,2.05459752 C6.47046105,3.8749472 4.6507614,5.69253422 2.83463696,7.51369646 C2.77816492,7.570331 2.65937051,7.60819571 2.71405494,7.73755323 C2.9178418,7.73755323 3.12065361,7.73730947 3.32346541,7.73755323 C3.96245259,7.73836578 4.04508865,7.82075808 4.04516991,8.46193914 C4.04557618,10.3571244 4.04955766,12.2523097 4.04037588,14.1474138 C4.03915706,14.3955657 4.07986568,14.49169 4.36295715,14.4904712 C7.1243991,14.4783643 9.88600356,14.4777955 12.6474455,14.4908775 C12.9492256,14.4922588 13.0082165,14.3930468 12.9884716,14.1246624 C12.9658015,13.8150007 12.9831901,13.5023325 12.9831901,13.1909643 C12.9832713,11.5666011 12.9813212,9.94215653 12.9844901,8.317712 C12.9853839,7.87267985 13.1199418,7.7438911 13.5651364,7.73812202 C13.8181636,7.73487183 14.0712721,7.73755323 14.4300117,7.73755323 M8.51108841,15.7227748 C6.82137678,15.7227748 5.13157699,15.7237446 3.44186536,15.7221576 C2.84838545,15.7216285 2.75130903,15.6252575 2.75078001,15.0294851 C2.74892841,12.957728 2.7428446,10.8859708 2.75756918,8.81430184 C2.75986163,8.49265354 2.69241071,8.3696548 2.3500422,8.39689968 C1.94119265,8.42934666 1.5277582,8.40069104 1.11643985,8.40580497 C0.89327871,8.40862644 0.699831241,8.34946361 0.601167741,8.13952814 C0.491306507,7.90578646 0.60416556,7.71348522 0.76657679,7.54816434 C1.0240365,7.28611973 1.28546392,7.02821916 1.54521608,6.768467 C3.67525435,4.63869324 5.80520446,2.50874313 7.93541907,0.379145717 C8.43728917,-0.122636211 8.56037607,-0.124575976 9.04778611,0.362745886 C11.3961361,2.71056686 13.7441334,5.05874052 16.0921307,7.40691418 C16.1647838,7.4795672 16.2456367,7.54631275 16.3067393,7.62778288 C16.4157188,7.77317708 16.4891654,7.93876247 16.4080479,8.11916061 C16.3222574,8.31022746 16.1616978,8.40280715 15.9498225,8.40289532 C15.509055,8.40289532 15.0668768,8.42511445 14.6278727,8.39742871 C14.3101921,8.37741386 14.2402724,8.48798047 14.2422122,8.79128917 C14.255526,10.8482336 14.2496185,12.9053543 14.248825,14.9624751 C14.2485605,15.6460659 14.1722925,15.7222457 13.4921403,15.7225102 C11.8317897,15.7232156 10.171439,15.7227748 8.51108841,15.7227748" id="Fill-1"></path>
                </g>
            </g>
        </g>
    </g>
</svg>