<?xml version="1.0" encoding="UTF-8"?>
<svg width="24px" height="30px" viewBox="0 0 24 30" version="1.1" xmlns="http://www.w3.org/2000/svg" xmlns:xlink="http://www.w3.org/1999/xlink">
    <!-- Generator: Sketch 42 (36781) - http://www.bohemiancoding.com/sketch -->
    <title>Group 9</title>
    <desc>Created with Sketch.</desc>
    <defs></defs>
    <g id="Page-1" stroke="none" stroke-width="1" fill="none" fill-rule="evenodd">
        <g id="Explore-Neighborhood" transform="translate(-298.000000, -421.000000)">
            <g id="Group-9" transform="translate(298.000000, 421.000000)">
                <path d="M8.48645908,24.0110098 C3.57333721,22.4746914 0,17.8004922 0,12.2727273 C0,5.49468716 5.372583,0 12,0 C18.627417,0 24,5.49468716 24,12.2727273 C24,17.8004922 20.4266628,22.4746914 15.5135409,24.0110098 L12,30 L8.48645908,24.0110098 Z" id="Combined-Shape" fill="#393939"></path>
                <g id="Group-13" transform="translate(6.000000, 6.000000)" fill-rule="nonzero" fill="#FFFFFF">
                    <g id="noun_803525_cc" transform="translate(0.190571, 0.105572)">
                        <g id="Group">
                            <g transform="translate(0.000000, 0.082216)" id="Shape">
                                <path d="M5.57199559,0.00033473046 C5.45085712,0.0212039517 5.35397534,0.136725855 5.3557907,0.258125685 L5.3557907,1.14832236 L0.113834751,4.81388055 C0.0214495918,4.87565035 -0.0223686454,5.00007938 0.0112743993,5.10510866 C0.0449148318,5.21015084 0.153215149,5.28707951 0.264770052,5.28515887 L1.04800389,5.28515887 L1.04392911,11.085583 C1.04394478,11.2205562 1.16831173,11.343361 1.30500619,11.3433739 L9.92873852,11.3433739 C10.065433,11.343361 10.1897999,11.2205562 10.1898156,11.085583 L10.1857408,5.28515887 L10.9689747,5.28515887 C11.0746669,5.28644789 11.1775119,5.21718888 11.2153956,5.11975192 C11.2532793,5.02231496 11.2236496,4.90306779 11.1443861,4.83401503 L5.79228831,0.0647856917 C5.71623622,0.000515193152 5.68213215,-0.00128943376 5.57199036,0.00033473046 L5.57199559,0.00033473046 Z M5.87794617,0.838197226 L10.2917961,4.76958985 L9.9246546,4.76958985 C9.78796014,4.76960274 9.66359189,4.8924076 9.66357621,5.0273808 L9.66765099,10.8278049 L1.56607543,10.8278049 L1.57015021,5.0273808 C1.57013454,4.8924076 1.44576759,4.76960274 1.30907182,4.76958985 L1.08470824,4.76958985 L5.76779393,1.49075032 C5.8353151,1.44350776 5.87764448,1.36299562 5.87793572,1.28128469 L5.87794617,0.838197226 Z M3.24269145,5.15628273 C3.1143529,5.16827061 3.00554324,5.28679592 3.00608916,5.41409173 L3.00608916,10.0544191 C3.00611528,10.1893923 3.13047439,10.3121843 3.26716754,10.3122101 L7.96657063,10.3122101 C8.10326248,10.3121843 8.22762159,10.1893923 8.22764771,10.0544191 L8.22764771,5.41409173 C8.22762159,5.27911337 8.10326248,5.15630851 7.96657063,5.15628273 L3.24269145,5.15628273 L3.24269145,5.15628273 Z M3.52824462,5.67188268 L7.70549225,5.67188268 L7.70549225,9.79662819 L3.52824462,9.79662819 L3.52824462,5.67188268 Z M5.09471232,6.18747748 L5.09471232,7.21865419 L4.05040139,7.21865419 L4.05040139,8.24984379 L5.09471232,8.24984379 L5.09471232,9.28103339 L6.13902455,9.28103339 L6.13902455,8.24984379 L7.18333678,8.24984379 L7.18333678,7.21865419 L6.13902455,7.21865419 L6.13902455,6.18747748 L5.09471232,6.18747748 L5.09471232,6.18747748 Z"></path>
                            </g>
                        </g>
                    </g>
                </g>
            </g>
        </g>
    </g>
</svg>