<?xml version="1.0" encoding="UTF-8"?>
<svg width="24px" height="30px" viewBox="0 0 24 30" version="1.1" xmlns="http://www.w3.org/2000/svg" xmlns:xlink="http://www.w3.org/1999/xlink">
    <!-- Generator: Sketch 42 (36781) - http://www.bohemiancoding.com/sketch -->
    <title>Group 5</title>
    <desc>Created with Sketch.</desc>
    <defs></defs>
    <g id="Page-1" stroke="none" stroke-width="1" fill="none" fill-rule="evenodd">
        <g id="Explore-Neighborhood" transform="translate(-201.000000, -421.000000)">
            <g id="Group-5" transform="translate(201.000000, 421.000000)">
                <path d="M8.48645908,24.0110098 C3.57333721,22.4746914 0,17.8004922 0,12.2727273 C0,5.49468716 5.372583,0 12,0 C18.627417,0 24,5.49468716 24,12.2727273 C24,17.8004922 20.4266628,22.4746914 15.5135409,24.0110098 L12,30 L8.48645908,24.0110098 Z" id="Combined-Shape" fill="#393939"></path>
                <g id="Group-6">
                    <path d="M8.48645908,24.0110098 C3.57333721,22.4746914 0,17.8004922 0,12.2727273 C0,5.49468716 5.372583,0 12,0 C18.627417,0 24,5.49468716 24,12.2727273 C24,17.8004922 20.4266628,22.4746914 15.5135409,24.0110098 L12,30 L8.48645908,24.0110098 Z" id="Combined-Shape" fill="#393939"></path>
                    <g id="Group-16" transform="translate(6.000000, 6.000000)" stroke-width="0.5" stroke="#FFFFFF" fill="#FFFFFF" fill-rule="nonzero">
                        <g id="noun_744575_cc" transform="translate(0.406897, 0.163009)">
                            <g id="Group">
                                <path d="M6.25308481,8.5862753 C6.35340168,8.5862753 6.42027959,8.52098043 6.42027959,8.42303812 L6.42027959,6.5131632 C7.4067288,6.38257346 8.17582479,5.02770493 8.17582479,3.31371461 C8.17582479,1.51810571 7.33985089,0.114266021 6.25308481,0.114266021 C5.16631873,0.114266021 4.33034483,1.51810571 4.33034483,3.31371461 C4.33034483,5.01138121 5.08272134,6.36624975 6.08589003,6.5131632 L6.08589003,8.42303812 C6.08589003,8.52098043 6.15276794,8.5862753 6.25308481,8.5862753 Z M4.66473439,3.33003833 C4.66473439,1.76296147 5.38367195,0.457064084 6.25308481,0.457064084 C7.12249767,0.457064084 7.84143523,1.77928519 7.84143523,3.33003833 C7.84143523,4.78284917 7.20609506,6.0397754 6.42027959,6.18668885 L6.42027959,4.32578508 L7.22281454,3.42798063 C7.28969245,3.36268576 7.27297297,3.26474346 7.20609506,3.19944859 C7.13921715,3.13415372 7.03890028,3.15047744 6.97202237,3.21577231 L6.43699907,3.83607356 L6.43699907,2.39958644 C6.43699907,2.30164414 6.37012116,2.23634927 6.26980429,2.23634927 C6.16948742,2.23634927 6.10260951,2.30164414 6.10260951,2.39958644 L6.10260951,4.94608634 C5.91869525,4.75020173 5.68462255,4.45637482 5.46726934,4.17887163 C5.4171109,4.11357676 5.30007456,4.09725304 5.23319664,4.14622419 C5.16631873,4.19519534 5.14959925,4.30946137 5.19975769,4.37475624 C5.73478099,5.04402864 5.96885368,5.30520812 6.08589003,5.41947414 L6.08589003,6.18668885 C5.30007456,6.0397754 4.66473439,4.78284917 4.66473439,3.33003833 Z" id="Shape"></path>
                                <path d="M1.72210624,5.90918566 L1.72210624,8.2108298 C1.72210624,8.3087721 1.78898416,8.37406697 1.88930103,8.37406697 L1.88930103,8.37406697 C1.98961789,8.37406697 2.05649581,8.29244839 2.05649581,8.2108298 L2.05649581,5.90918566 C2.47448276,5.87653823 2.87575023,5.69697734 3.17670084,5.38682671 C3.5110904,5.04402864 3.71172414,4.60328828 3.69500466,4.12990048 C3.69500466,3.15047744 2.87575023,2.36693901 1.87258155,2.36693901 L1.87258155,2.36693901 C1.38771668,2.36693901 0.936290774,2.56282362 0.585181733,2.88929796 C0.234072693,3.21577231 0.0501584343,3.67283639 0.0668779124,4.14622419 C0.0835973905,4.61961199 0.26751165,5.06035236 0.601901212,5.40315042 C0.902851817,5.69697734 1.28739981,5.87653823 1.72210624,5.90918566 Z M0.819254427,3.13415372 C1.10348555,2.85665053 1.47131407,2.70973707 1.85586207,2.70973707 L1.85586207,2.70973707 C2.6751165,2.70973707 3.32717614,3.34636205 3.34389562,4.14622419 C3.34389562,4.53799341 3.19342032,4.89711519 2.90918919,5.17461838 C2.6751165,5.40315042 2.35744641,5.55006388 2.02305685,5.59903503 L2.02305685,5.04402864 L2.02305685,5.04402864 L2.02305685,4.78284917 L2.4410438,4.45637482 C2.50792171,4.40740367 2.52464119,4.29313765 2.47448276,4.22784278 C2.42432432,4.16254791 2.30728798,4.14622419 2.24041007,4.19519534 L2.03977633,4.35843252 L2.03977633,4.09725304 L2.03977633,4.03195817 L2.03977633,3.44430435 C2.03977633,3.34636205 1.97289842,3.28106718 1.87258155,3.28106718 L1.87258155,3.28106718 C1.77226468,3.28106718 1.70538677,3.36268576 1.70538677,3.44430435 L1.70538677,3.72180754 L1.52147251,3.57489409 C1.45459459,3.52592294 1.33755825,3.52592294 1.28739981,3.60754152 C1.23724138,3.67283639 1.23724138,3.78710241 1.32083877,3.83607356 L1.72210624,4.14622419 L1.72210624,4.7175543 L1.52147251,4.57064084 C1.45459459,4.52166969 1.33755825,4.52166969 1.28739981,4.60328828 C1.23724138,4.66858315 1.23724138,4.78284917 1.32083877,4.83182032 L1.72210624,5.14197095 L1.72210624,5.61535875 C1.38771668,5.58271131 1.08676608,5.43579786 0.835973905,5.20726582 C0.551742777,4.92976262 0.401267474,4.57064084 0.401267474,4.19519534 C0.401267474,3.7707787 0.551742777,3.41165691 0.819254427,3.13415372 Z" id="Shape"></path>
                                <path d="M10.4831128,2.38326273 C9.9982479,2.38326273 9.54682199,2.57914733 9.19571295,2.90562168 C8.86132339,3.24841974 8.66068966,3.68916011 8.67740913,4.16254791 C8.69412861,4.63593571 8.87804287,5.07667608 9.21243243,5.41947414 C9.51338304,5.71330105 9.91465051,5.89286194 10.3326375,5.92550938 L10.3326375,8.22715352 C10.3326375,8.32509582 10.3995154,8.39039069 10.4998322,8.39039069 L10.4998322,8.39039069 C10.6001491,8.39039069 10.667027,8.3087721 10.667027,8.22715352 L10.667027,5.92550938 C11.085014,5.89286194 11.4862815,5.71330105 11.7872321,5.40315042 C12.1216216,5.06035236 12.3222554,4.61961199 12.3055359,4.14622419 C12.2888164,3.67283639 12.1049021,3.23209602 11.7705126,2.88929796 C11.436123,2.56282362 10.9679776,2.38326273 10.4831128,2.38326273 Z M11.5531594,5.17461838 C11.3190867,5.40315042 11.0014166,5.55006388 10.667027,5.59903503 L10.667027,5.04402864 L10.667027,5.04402864 L10.667027,4.78284917 L11.085014,4.45637482 C11.1518919,4.40740367 11.1686114,4.29313765 11.1184529,4.22784278 C11.0682945,4.16254791 10.9512582,4.14622419 10.8843802,4.19519534 L10.6837465,4.35843252 L10.6837465,4.09725304 L10.6837465,4.04828189 L10.6837465,3.46062807 C10.6837465,3.36268576 10.6168686,3.29739089 10.5165517,3.29739089 L10.5165517,3.29739089 C10.4162349,3.29739089 10.3493569,3.37900948 10.3493569,3.46062807 L10.3493569,3.73813126 L10.1654427,3.5912178 C10.0985648,3.54224665 9.98152842,3.54224665 9.93136999,3.62386524 C9.88121156,3.70548383 9.88121156,3.80342613 9.96480895,3.85239728 L10.3660764,4.16254791 L10.3660764,4.73387802 L10.1654427,4.58696456 C10.0985648,4.53799341 9.98152842,4.53799341 9.93136999,4.61961199 C9.88121156,4.70123058 9.88121156,4.79917288 9.96480895,4.84814404 L10.3660764,5.15829467 L10.3660764,5.63168247 C10.0316869,5.59903503 9.73073625,5.45212158 9.47994408,5.22358953 C9.19571295,4.94608634 9.04523765,4.58696456 9.04523765,4.21151906 C9.04523765,3.81974985 9.19571295,3.46062807 9.47994408,3.18312487 C9.76417521,2.90562168 10.1320037,2.75870822 10.5165517,2.75870822 L10.5165517,2.75870822 C10.9178192,2.75870822 11.2856477,2.90562168 11.5531594,3.18312487 C11.8373905,3.46062807 11.9878658,3.81974985 11.9878658,4.19519534 C11.9878658,4.57064084 11.820671,4.89711519 11.5531594,5.17461838 Z" id="Shape"></path>
                                <path d="M11.5030009,9.30451886 C11.3023672,9.30451886 11.2187698,9.23922399 11.1017335,9.17392912 C10.9679776,9.09231053 10.8175023,8.97804451 10.5165517,8.97804451 C10.2156011,8.97804451 10.0484063,9.07598682 9.93136999,9.17392912 C9.81433364,9.25554771 9.73073625,9.30451886 9.53010252,9.30451886 C9.32946878,9.30451886 9.24587139,9.23922399 9.12883504,9.17392912 C8.99507922,9.09231053 8.84460391,8.97804451 8.54365331,8.97804451 C8.2427027,8.97804451 8.07550792,9.07598682 7.95847158,9.17392912 C7.80799627,9.23922399 7.7076794,9.30451886 7.52376514,9.30451886 C7.32313141,9.30451886 7.23953402,9.23922399 7.12249767,9.17392912 C6.98874185,9.07598682 6.82154706,8.97804451 6.52059646,8.97804451 C6.21964585,8.97804451 6.05245107,9.07598682 5.93541473,9.17392912 C5.81837838,9.23922399 5.71806151,9.30451886 5.51742777,9.30451886 C5.31679404,9.30451886 5.23319664,9.23922399 5.1161603,9.17392912 C4.98240447,9.09231053 4.83192917,8.97804451 4.53097856,8.97804451 C4.23002796,8.97804451 4.06283318,9.07598682 3.94579683,9.17392912 C3.82876048,9.25554771 3.74516309,9.30451886 3.54452936,9.30451886 C3.34389562,9.30451886 3.26029823,9.23922399 3.14326188,9.17392912 C2.99278658,9.07598682 2.84231128,8.97804451 2.54136067,8.97804451 C2.24041007,8.97804451 2.07321528,9.07598682 1.95617894,9.17392912 C1.83914259,9.23922399 1.73882572,9.30451886 1.53819199,9.30451886 C1.33755825,9.30451886 1.25396086,9.23922399 1.13692451,9.17392912 C1.00316869,9.07598682 0.852693383,8.97804451 0.551742777,8.97804451 C0.451425909,8.97804451 0.384547996,9.04333938 0.384547996,9.14128169 C0.384547996,9.23922399 0.451425909,9.30451886 0.551742777,9.30451886 C0.752376514,9.30451886 0.835973905,9.36981373 0.953010252,9.4351086 C1.08676608,9.51672718 1.23724138,9.6309932 1.53819199,9.6309932 C1.83914259,9.6309932 2.00633737,9.5330509 2.12337372,9.4351086 C2.24041007,9.35349001 2.32400746,9.30451886 2.52464119,9.30451886 C2.72527493,9.30451886 2.80887232,9.36981373 2.92590867,9.4351086 C3.05966449,9.51672718 3.21013979,9.6309932 3.5110904,9.6309932 C3.81204101,9.6309932 3.97923579,9.5330509 4.09627213,9.4351086 C4.21330848,9.35349001 4.29690587,9.30451886 4.49753961,9.30451886 C4.69817335,9.30451886 4.78177074,9.36981373 4.89880708,9.4351086 C5.03256291,9.51672718 5.18303821,9.6309932 5.48398882,9.6309932 C5.78493942,9.6309932 5.9521342,9.5330509 6.06917055,9.4351086 C6.1862069,9.35349001 6.26980429,9.30451886 6.47043802,9.30451886 C6.67107176,9.30451886 6.75466915,9.36981373 6.8717055,9.4351086 C7.00546132,9.51672718 7.15593663,9.6309932 7.45688723,9.6309932 C7.75783784,9.6309932 7.92503262,9.5330509 8.04206897,9.4351086 C8.15910531,9.35349001 8.2427027,9.30451886 8.44333644,9.30451886 C8.64397018,9.30451886 8.72756757,9.36981373 8.84460391,9.4351086 C8.97835974,9.51672718 9.12883504,9.6309932 9.42978565,9.6309932 C9.73073625,9.6309932 9.89793103,9.5330509 10.0149674,9.4351086 C10.1320037,9.35349001 10.2156011,9.30451886 10.4162349,9.30451886 C10.6168686,9.30451886 10.700466,9.36981373 10.8175023,9.4351086 C11.0348555,9.51672718 11.2020503,9.6309932 11.5030009,9.6309932 C11.6033178,9.6309932 11.6701957,9.56569833 11.6701957,9.46775603 C11.6701957,9.36981373 11.5865983,9.30451886 11.5030009,9.30451886 Z" id="Shape"></path>
                                <path d="M11.5030009,10.2839419 C11.3023672,10.2839419 11.2187698,10.218647 11.1017335,10.1533522 C10.9679776,10.0717336 10.8175023,9.95746755 10.5165517,9.95746755 C10.2156011,9.95746755 10.0484063,10.0554099 9.93136999,10.1533522 C9.81433364,10.2349707 9.73073625,10.2839419 9.53010252,10.2839419 C9.32946878,10.2839419 9.24587139,10.218647 9.12883504,10.1533522 C8.99507922,10.0717336 8.84460391,9.95746755 8.54365331,9.95746755 C8.2427027,9.95746755 8.07550792,10.0554099 7.95847158,10.1533522 C7.80799627,10.218647 7.7076794,10.2839419 7.52376514,10.2839419 C7.32313141,10.2839419 7.23953402,10.218647 7.12249767,10.1533522 C6.98874185,10.0554099 6.82154706,9.95746755 6.52059646,9.95746755 C6.21964585,9.95746755 6.05245107,10.0554099 5.93541473,10.1533522 C5.81837838,10.218647 5.71806151,10.2839419 5.51742777,10.2839419 C5.31679404,10.2839419 5.23319664,10.218647 5.1161603,10.1533522 C4.98240447,10.0717336 4.83192917,9.95746755 4.53097856,9.95746755 C4.23002796,9.95746755 4.06283318,10.0554099 3.94579683,10.1533522 C3.82876048,10.2349707 3.74516309,10.2839419 3.54452936,10.2839419 C3.34389562,10.2839419 3.26029823,10.218647 3.14326188,10.1533522 C2.99278658,10.0554099 2.84231128,9.95746755 2.54136067,9.95746755 C2.24041007,9.95746755 2.07321528,10.0554099 1.95617894,10.1533522 C1.83914259,10.218647 1.73882572,10.2839419 1.53819199,10.2839419 C1.33755825,10.2839419 1.25396086,10.218647 1.13692451,10.1533522 C1.00316869,10.0554099 0.852693383,9.95746755 0.551742777,9.95746755 C0.451425909,9.95746755 0.384547996,10.0227624 0.384547996,10.1207047 C0.384547996,10.218647 0.451425909,10.2839419 0.551742777,10.2839419 C0.752376514,10.2839419 0.835973905,10.3492368 0.953010252,10.4145316 C1.08676608,10.4961502 1.23724138,10.6104162 1.53819199,10.6104162 C1.83914259,10.6104162 2.00633737,10.5124739 2.12337372,10.4145316 C2.24041007,10.332913 2.32400746,10.2839419 2.52464119,10.2839419 C2.72527493,10.2839419 2.80887232,10.3492368 2.92590867,10.4145316 C3.05966449,10.4961502 3.21013979,10.6104162 3.5110904,10.6104162 C3.81204101,10.6104162 3.97923579,10.5124739 4.09627213,10.4145316 C4.21330848,10.332913 4.29690587,10.2839419 4.49753961,10.2839419 C4.69817335,10.2839419 4.78177074,10.3492368 4.89880708,10.4145316 C5.03256291,10.4961502 5.18303821,10.6104162 5.48398882,10.6104162 C5.78493942,10.6104162 5.9521342,10.5124739 6.06917055,10.4145316 C6.1862069,10.332913 6.26980429,10.2839419 6.47043802,10.2839419 C6.67107176,10.2839419 6.75466915,10.3492368 6.8717055,10.4145316 C7.00546132,10.4961502 7.15593663,10.6104162 7.45688723,10.6104162 C7.75783784,10.6104162 7.92503262,10.5124739 8.04206897,10.4145316 C8.15910531,10.332913 8.2427027,10.2839419 8.44333644,10.2839419 C8.64397018,10.2839419 8.72756757,10.3492368 8.84460391,10.4145316 C8.97835974,10.4961502 9.12883504,10.6104162 9.42978565,10.6104162 C9.73073625,10.6104162 9.89793103,10.5124739 10.0149674,10.4145316 C10.1320037,10.332913 10.2156011,10.2839419 10.4162349,10.2839419 C10.6168686,10.2839419 10.700466,10.3492368 10.8175023,10.4145316 C11.0348555,10.4961502 11.2020503,10.6104162 11.5030009,10.6104162 C11.6033178,10.6104162 11.6701957,10.5451214 11.6701957,10.4471791 C11.6701957,10.3492368 11.5865983,10.2839419 11.5030009,10.2839419 Z" id="Shape"></path>
                                <path d="M11.5030009,11.2633649 C11.3023672,11.2633649 11.2187698,11.1980701 11.1017335,11.1327752 C10.9679776,11.0511566 10.8175023,10.9368906 10.5165517,10.9368906 C10.2156011,10.9368906 10.0484063,11.0348329 9.93136999,11.1327752 C9.81433364,11.2143938 9.73073625,11.2633649 9.53010252,11.2633649 C9.32946878,11.2633649 9.24587139,11.1980701 9.12883504,11.1327752 C8.99507922,11.0511566 8.84460391,10.9368906 8.54365331,10.9368906 C8.2427027,10.9368906 8.07550792,11.0348329 7.95847158,11.1327752 C7.80799627,11.1980701 7.7076794,11.2633649 7.52376514,11.2633649 C7.32313141,11.2633649 7.23953402,11.1980701 7.12249767,11.1327752 C6.98874185,11.0348329 6.82154706,10.9368906 6.52059646,10.9368906 C6.21964585,10.9368906 6.05245107,11.0348329 5.93541473,11.1327752 C5.81837838,11.1980701 5.71806151,11.2633649 5.51742777,11.2633649 C5.31679404,11.2633649 5.23319664,11.1980701 5.1161603,11.1327752 C4.98240447,11.0511566 4.83192917,10.9368906 4.53097856,10.9368906 C4.23002796,10.9368906 4.06283318,11.0348329 3.94579683,11.1327752 C3.82876048,11.2143938 3.74516309,11.2633649 3.54452936,11.2633649 C3.34389562,11.2633649 3.26029823,11.1980701 3.14326188,11.1327752 C2.99278658,11.0348329 2.84231128,10.9368906 2.54136067,10.9368906 C2.24041007,10.9368906 2.07321528,11.0348329 1.95617894,11.1327752 C1.83914259,11.1980701 1.73882572,11.2633649 1.53819199,11.2633649 C1.33755825,11.2633649 1.25396086,11.1980701 1.13692451,11.1327752 C1.00316869,11.0348329 0.852693383,10.9368906 0.551742777,10.9368906 C0.451425909,10.9368906 0.384547996,11.0021855 0.384547996,11.1001278 C0.384547996,11.1980701 0.451425909,11.2633649 0.551742777,11.2633649 C0.752376514,11.2633649 0.835973905,11.3286598 0.953010252,11.3939547 C1.08676608,11.4755733 1.23724138,11.5898393 1.53819199,11.5898393 C1.83914259,11.5898393 2.00633737,11.491897 2.12337372,11.3939547 C2.24041007,11.3123361 2.32400746,11.2633649 2.52464119,11.2633649 C2.72527493,11.2633649 2.80887232,11.3286598 2.92590867,11.3939547 C3.05966449,11.4755733 3.21013979,11.5898393 3.5110904,11.5898393 C3.81204101,11.5898393 3.97923579,11.491897 4.09627213,11.3939547 C4.21330848,11.3123361 4.29690587,11.2633649 4.49753961,11.2633649 C4.69817335,11.2633649 4.78177074,11.3286598 4.89880708,11.3939547 C5.03256291,11.4755733 5.18303821,11.5898393 5.48398882,11.5898393 C5.78493942,11.5898393 5.9521342,11.491897 6.06917055,11.3939547 C6.1862069,11.3123361 6.26980429,11.2633649 6.47043802,11.2633649 C6.67107176,11.2633649 6.75466915,11.3286598 6.8717055,11.3939547 C7.00546132,11.4755733 7.15593663,11.5898393 7.45688723,11.5898393 C7.75783784,11.5898393 7.92503262,11.491897 8.04206897,11.3939547 C8.15910531,11.3123361 8.2427027,11.2633649 8.44333644,11.2633649 C8.64397018,11.2633649 8.72756757,11.3286598 8.84460391,11.3939547 C8.97835974,11.4755733 9.12883504,11.5898393 9.42978565,11.5898393 C9.73073625,11.5898393 9.89793103,11.491897 10.0149674,11.3939547 C10.1320037,11.3123361 10.2156011,11.2633649 10.4162349,11.2633649 C10.6168686,11.2633649 10.700466,11.3286598 10.8175023,11.3939547 C11.0348555,11.4755733 11.2020503,11.5898393 11.5030009,11.5898393 C11.6033178,11.5898393 11.6701957,11.5245444 11.6701957,11.4266021 C11.6701957,11.3286598 11.5865983,11.2633649 11.5030009,11.2633649 Z" id="Shape"></path>
                            </g>
                        </g>
                    </g>
                </g>
            </g>
        </g>
    </g>
</svg>