<?xml version="1.0" encoding="UTF-8"?>
<svg width="24px" height="30px" viewBox="0 0 24 30" version="1.1" xmlns="http://www.w3.org/2000/svg" xmlns:xlink="http://www.w3.org/1999/xlink">
    <!-- Generator: Sketch 42 (36781) - http://www.bohemiancoding.com/sketch -->
    <title>Group 3</title>
    <desc>Created with Sketch.</desc>
    <defs></defs>
    <g id="Page-1" stroke="none" stroke-width="1" fill="none" fill-rule="evenodd">
        <g id="Explore-Neighborhood" transform="translate(-125.000000, -480.000000)">
            <g id="Group-3" transform="translate(125.000000, 480.000000)">
                <path d="M8.48645908,24.0110098 C3.57333721,22.4746914 0,17.8004922 0,12.2727273 C0,5.49468716 5.372583,0 12,0 C18.627417,0 24,5.49468716 24,12.2727273 C24,17.8004922 20.4266628,22.4746914 15.5135409,24.0110098 L12,30 L8.48645908,24.0110098 Z" id="Combined-Shape-Copy-8" fill="#393939"></path>
                <g id="noun_155" transform="translate(8.123077, 5.250000)" fill-rule="nonzero" fill="#FFFFFF">
                    <path d="M6.93656929,12.532995 L6.13125848,12.532995 L6.13125848,5.836995 C6.36230344,5.836995 6.34436599,5.94432 6.34436599,6.0156 L6.34436599,11.225925 C6.34436599,11.90619 6.84152762,12.37167 7.4271717,12.37167 C8.03088709,12.37167 8.49230769,11.88837 8.49230769,11.24388 C8.49230769,10.598985 7.64041308,8.737335 7.64041308,8.12862 L7.64041308,3.15117 C7.64041308,2.77506 7.49838602,2.45268 7.30308209,2.29149 L6.13125848,1.32489 L6.13125848,0.55485 C6.13125848,0.250965 5.88267767,0 5.58081997,0 L1.35561545,0 C1.05389162,0 0.80531081,0.250965 0.80531081,0.55485 L0.80531081,12.532995 L0,12.532995 L0,13.5 L6.93656929,13.5 L6.93656929,12.532995 Z M5.06598863,3.759885 L1.87058066,3.759885 C1.72841974,3.759885 1.58666041,3.63447 1.58666041,3.473685 L1.58666041,1.002645 C1.58666041,0.84186 1.72841974,0.71631 1.87058066,0.71631 L5.06598863,0.71631 C5.20814955,0.71631 5.3501766,0.84186 5.3501766,1.002645 L5.3501766,3.47382 C5.3501766,3.63447 5.20814955,3.759885 5.06598863,3.759885 Z M7.4271717,11.85273 C7.08970685,11.85273 6.87686706,11.60217 6.87686706,11.225925 L6.87686706,5.478705 C6.87686706,5.28174 6.64622369,5.1921 6.4333839,5.1921 L6.13139234,5.1921 L6.13139234,2.05902 C6.2734194,2.166345 6.37970543,2.291625 6.37970543,2.43513 L6.37970543,3.473685 L7.08984071,3.473685 L7.08984071,7.949475 C7.08984071,9.07713 7.97774407,10.598985 7.97774407,11.24388 C7.97774407,11.584215 7.76450269,11.85273 7.4271717,11.85273 Z" id="Shape"></path>
                </g>
            </g>
        </g>
    </g>
</svg>