<?xml version="1.0" encoding="UTF-8"?>
<svg width="24px" height="30px" viewBox="0 0 24 30" version="1.1" xmlns="http://www.w3.org/2000/svg" xmlns:xlink="http://www.w3.org/1999/xlink">
    <!-- Generator: Sketch 42 (36781) - http://www.bohemiancoding.com/sketch -->
    <title>Group 2</title>
    <desc>Created with Sketch.</desc>
    <defs></defs>
    <g id="Page-1" stroke="none" stroke-width="1" fill="none" fill-rule="evenodd">
        <g id="Explore-Neighborhood" transform="translate(-112.000000, -518.000000)">
            <g id="Group-2" transform="translate(112.000000, 518.000000)">
                <path d="M8.48645908,24.0110098 C3.57333721,22.4746914 0,17.8004922 0,12.2727273 C0,5.49468716 5.372583,0 12,0 C18.627417,0 24,5.49468716 24,12.2727273 C24,17.8004922 20.4266628,22.4746914 15.5135409,24.0110098 L12,30 L8.48645908,24.0110098 Z" id="Combined-Shape-Copy-7" fill="#393939"></path>
                <g id="noun_24" transform="translate(7.753846, 4.875000)" fill-rule="nonzero" fill="#FFFFFF">
                    <g id="Group">
                        <path d="M6.39646181,14.5576894 C6.39328259,14.94587 6.70287733,15.2617426 7.0880162,15.2649394 C7.47376064,15.2681361 7.78804849,14.9572871 7.7912277,14.5697153 L7.90583074,0.807872525 C7.91143221,0.127414604 7.47148977,0.0511485149 7.16356034,0.0487128713 C6.85441978,0.046125 6.28291851,0.918389851 6.15332775,1.72321782 C6.02252587,2.52728465 5.24906891,6.67427228 6.47488238,7.49066955 L6.39646181,14.5576894 L6.39646181,14.5576894 L6.39646181,14.5576894 Z" id="Shape"></path>
                        <path d="M0.739999534,14.5304406 L0.833559213,5.66591584 C0.331849218,5.66180569 0.0850817795,5.06096287 0,4.6262005 L0.30369048,0.0423193069 L0.714565835,3.74236634 L1.09955332,0.0487128713 L1.5099745,3.74906436 L1.98292019,0.0561720297 L2.30553455,3.75576238 L2.77787468,0.0628700495 L3.00450711,4.6514703 C2.91336969,5.0847104 2.69203595,5.68144307 2.18911482,5.67733292 L2.13567378,14.5420099 C2.13249457,14.9298861 1.81684419,15.2407351 1.43185671,15.2373861 C1.04671784,15.2341894 0.736971713,14.9183168 0.739999534,14.5304406 L0.739999534,14.5304406 L0.739999534,14.5304406 Z" id="Shape"></path>
                    </g>
                </g>
            </g>
        </g>
    </g>
</svg>