<?xml version="1.0" encoding="UTF-8"?>
<svg width="24px" height="30px" viewBox="0 0 24 30" version="1.1" xmlns="http://www.w3.org/2000/svg" xmlns:xlink="http://www.w3.org/1999/xlink">
    <!-- Generator: Sketch 42 (36781) - http://www.bohemiancoding.com/sketch -->
    <title>Group 8</title>
    <desc>Created with Sketch.</desc>
    <defs></defs>
    <g id="Page-1" stroke="none" stroke-width="1" fill="none" fill-rule="evenodd">
        <g id="Explore-Neighborhood" transform="translate(-141.000000, -460.000000)">
            <g id="Group-8" transform="translate(141.000000, 460.000000)">
                <path d="M8.48645908,24.0110098 C3.57333721,22.4746914 0,17.8004922 0,12.2727273 C0,5.49468716 5.372583,0 12,0 C18.627417,0 24,5.49468716 24,12.2727273 C24,17.8004922 20.4266628,22.4746914 15.5135409,24.0110098 L12,30 L8.48645908,24.0110098 Z" id="Combined-Shape" fill="#393939"></path>
                <g id="Group-4" transform="translate(5.000000, 8.000000)" fill-rule="nonzero" fill="#FFFFFF">
                    <g id="noun_23694_cc" transform="translate(0.346154, 0.360963)">
                        <g id="Group">
                            <polygon id="Shape" points="2.27043001 0 0 0 0 0.458320226 0 1.49108079 0 7.84026358 0.189176763 7.84026358 0.189176763 1.49108079 2.27043001 1.49108079"></polygon>
                            <path d="M5.69244461,3.95347397 L5.69244461,2.35920953 L5.89938082,2.35920953 L5.89938082,1.96788167 L0.502206393,1.96788167 L0.502206393,2.35920953 L0.836238505,2.35920953 L0.836238505,7.84026358 L1.80822099,7.84026358 L2.08712159,7.84026358 L4.52572588,7.84026358 L4.71752795,7.84026358 L5.25092921,7.84026358 L5.69229018,7.84026358 L14.1735863,7.84026358 L14.1735863,4.34495583 L14.3212214,4.34495583 L14.3212214,3.95347397 L5.69244461,3.95347397 Z M3.36379448,2.8866782 L4.16019005,2.8866782 L4.16019005,3.59956944 L3.36379448,3.59956944 L3.36379448,2.8866782 Z M2.34177667,2.8866782 L3.13832667,2.8866782 L3.13832667,3.59956944 L2.34177667,3.59956944 L2.34177667,2.8866782 Z M1.3199133,3.59956944 L1.3199133,2.8866782 L2.11630886,2.8866782 L2.11630886,3.59956944 L1.3199133,3.59956944 L1.3199133,3.59956944 Z M2.08727602,7.66793148 L2.08727602,5.26637045 L4.52588031,5.26637045 L4.52588031,7.66793148 L2.08727602,7.66793148 Z M5.18220785,3.59956944 L4.38565786,3.59956944 L4.38565786,2.8866782 L5.18220785,2.8866782 L5.18220785,3.59956944 Z M7.91469245,6.69184492 L5.89938082,6.69184492 L5.89938082,5.26637045 L7.91469245,5.26637045 L7.91469245,6.69184492 L7.91469245,6.69184492 Z M11.0557989,6.69184492 L8.45288104,6.69184492 L8.45288104,5.26637045 L11.0556444,5.26637045 L11.0556444,6.69184492 L11.0557989,6.69184492 Z M13.6048206,6.69184492 L11.5893545,6.69184492 L11.5893545,5.26637045 L13.6048206,5.26637045 L13.6048206,6.69184492 L13.6048206,6.69184492 Z" id="Shape"></path>
                        </g>
                    </g>
                </g>
            </g>
        </g>
    </g>
</svg>