<?xml version="1.0" encoding="UTF-8"?>
<svg width="24px" height="30px" viewBox="0 0 24 30" version="1.1" xmlns="http://www.w3.org/2000/svg" xmlns:xlink="http://www.w3.org/1999/xlink">
    <!-- Generator: Sketch 42 (36781) - http://www.bohemiancoding.com/sketch -->
    <title>Group 10</title>
    <desc>Created with Sketch.</desc>
    <defs></defs>
    <g id="Page-1" stroke="none" stroke-width="1" fill="none" fill-rule="evenodd">
        <g id="Explore-Neighborhood" transform="translate(-201.000000, -468.000000)">
            <g id="Group-10" transform="translate(201.000000, 468.000000)">
                <path d="M8.48645908,24.0110098 C3.57333721,22.4746914 0,17.8004922 0,12.2727273 C0,5.49468716 5.372583,0 12,0 C18.627417,0 24,5.49468716 24,12.2727273 C24,17.8004922 20.4266628,22.4746914 15.5135409,24.0110098 L12,30 L8.48645908,24.0110098 Z" id="Combined-Shape" fill="#393939"></path>
                <g id="Group-15" transform="translate(6.000000, 8.000000)" fill-rule="nonzero" fill="#FFFFFF">
                    <g id="noun_840731_cc" transform="translate(0.291429, 0.274286)">
                        <g id="Group">
                            <path d="M12.2407292,2.99122667 L11.2377671,0.892604444 C11.1989541,0.420542222 10.7996018,0.0481466667 10.3143872,0.0481466667 L0.116027333,0.0481466667 L0.116027333,0.66148 L10.3143872,0.66148 C10.4846705,0.66148 10.6232444,0.799071111 10.6232444,0.968146667 C10.6232444,1.01363556 10.6333337,1.05851111 10.6529976,1.09960444 L10.682339,1.16093778 L10.0117072,1.16093778 C9.84101219,1.16093778 9.7028501,1.29822222 9.7028501,1.46760444 L9.7028501,3.51204889 C9.7028501,3.68143111 9.84101219,3.81871556 10.0117072,3.81871556 L11.6528711,3.81871556 L11.6528711,5.27722222 C11.6528711,5.44629778 11.5142972,5.58388889 11.344014,5.58388889 L0.116027333,5.58388889 L0.116027333,6.19722222 L1.01480162,6.19722222 C1.02972971,6.38060889 1.0898539,6.55121778 1.18415829,6.69862222 L0.116027333,6.69862222 L0.116027333,7.31195556 L11.9618312,7.31195556 L11.9618312,6.69862222 L10.1466778,6.69862222 C10.2409822,6.55121778 10.3011064,6.38060889 10.3160345,6.19722222 L11.344117,6.19722222 C11.8550696,6.19722222 12.2706884,5.78455111 12.2706884,5.27722222 L12.2706884,3.12268444 C12.2706884,3.07719556 12.2603931,3.03232 12.2407292,2.99122667 Z M2.12658438,6.60212444 C1.88269019,6.60212444 1.67997695,6.42712 1.63704581,6.19712 L2.61591705,6.19712 C2.5729859,6.42712 2.37037562,6.60212444 2.12658438,6.60212444 Z M3.74149543,6.60212444 C3.49760124,6.60212444 3.294888,6.42712 3.25195686,6.19712 L4.2308281,6.19712 C4.18789695,6.42712 3.98528667,6.60212444 3.74149543,6.60212444 Z M4.68381857,6.69852 C4.77802,6.55111556 4.83814419,6.38050667 4.85307229,6.19712 L6.47776381,6.19712 C6.4926919,6.38050667 6.5528161,6.55111556 6.64712048,6.69852 L4.68381857,6.69852 Z M7.58954657,6.60212444 C7.34565238,6.60212444 7.14293914,6.42712 7.09990505,6.19712 L8.07877629,6.19712 C8.0359481,6.42712 7.83323486,6.60212444 7.58954657,6.60212444 Z M9.20445762,6.60212444 C8.96056343,6.60212444 8.75785019,6.42712 8.7148161,6.19712 L9.69368733,6.19712 C9.65085914,6.42712 9.4481459,6.60212444 9.20445762,6.60212444 Z M11.6529741,3.20528 L10.3206673,3.20528 L10.3206673,1.77416889 L10.9755474,1.77416889 L11.6529741,3.19168444 L11.6529741,3.20528 Z" id="Shape"></path>
                            <path d="M0.392557429,3.81861333 L2.45160505,3.81861333 C2.62219714,3.81861333 2.76046219,3.68132889 2.76046219,3.51194667 L2.76046219,1.46750222 C2.76046219,1.29812 2.62219714,1.16083556 2.45160505,1.16083556 L0.392557429,1.16083556 C0.221965333,1.16083556 0.0837002857,1.29812 0.0837002857,1.46750222 L0.0837002857,3.51194667 C0.0837002857,3.68143111 0.221862381,3.81861333 0.392557429,3.81861333 Z M0.701414571,1.77416889 L2.1427479,1.77416889 L2.1427479,3.20528 L0.701414571,3.20528 L0.701414571,1.77416889 L0.701414571,1.77416889 Z" id="Shape"></path>
                            <path d="M5.47583124,3.81861333 C5.64642333,3.81861333 5.78468838,3.68132889 5.78468838,3.51194667 L5.78468838,1.46750222 C5.78468838,1.29812 5.64642333,1.16083556 5.47583124,1.16083556 L3.41678362,1.16083556 C3.24619152,1.16083556 3.10792648,1.29812 3.10792648,1.46750222 L3.10792648,3.51194667 C3.10792648,3.68132889 3.24619152,3.81861333 3.41678362,3.81861333 L5.47583124,3.81861333 Z M3.72564076,1.77416889 L5.1669741,1.77416889 L5.1669741,3.20528 L3.72564076,3.20528 L3.72564076,1.77416889 Z" id="Shape"></path>
                            <path d="M8.49985152,3.81861333 C8.67034067,3.81861333 8.80870867,3.68132889 8.80870867,3.51194667 L8.80870867,1.46750222 C8.80870867,1.29812 8.67034067,1.16083556 8.49985152,1.16083556 L6.4408039,1.16083556 C6.27010886,1.16083556 6.13194676,1.29812 6.13194676,1.46750222 L6.13194676,3.51194667 C6.13194676,3.68132889 6.27010886,3.81861333 6.4408039,3.81861333 L8.49985152,3.81861333 Z M6.74966105,1.77416889 L8.19099438,1.77416889 L8.19099438,3.20528 L6.74966105,3.20528 L6.74966105,1.77416889 Z" id="Shape"></path>
                        </g>
                    </g>
                </g>
            </g>
        </g>
    </g>
</svg>