<?xml version="1.0" encoding="UTF-8" standalone="no"?>
<!DOCTYPE svg PUBLIC "-//W3C//DTD SVG 1.1//EN" "http://www.w3.org/Graphics/SVG/1.1/DTD/svg11.dtd">
<svg width="100%" height="100%" viewBox="0 0 15 20" version="1.1" xmlns="http://www.w3.org/2000/svg" xmlns:xlink="http://www.w3.org/1999/xlink" xml:space="preserve" xmlns:serif="http://www.serif.com/" style="fill-rule:evenodd;clip-rule:evenodd;stroke-linejoin:round;stroke-miterlimit:1.41421;">
    <g transform="matrix(-0.993546,0,0,-0.983791,15.3904,21.1511)">
        <path d="M7.942,1.846C7.942,1.846 1.592,10.711 1.592,14.51C1.592,18.05 4.437,20.923 7.942,20.923C11.446,20.923 14.291,18.05 14.291,14.51C14.291,10.711 7.942,1.846 7.942,1.846Z" style="fill:rgb(57,57,57);"/>
    </g>
    <g transform="matrix(0.122169,0.0128405,-0.0148136,0.140942,2.35925,-1.25691)">
        <path d="M92.291,46.287L45.172,19.071L8.412,40.334L55.484,67.55L92.291,46.287Z" style="fill:white;fill-rule:nonzero;"/>
    </g>
    <g transform="matrix(0.122169,0.0128405,-0.0148136,0.140942,2.35925,-1.25691)">
        <path d="M54.014,73.201C54.037,73.195 54.053,73.175 54.078,73.175L54.219,73.175C54.24,73.146 54.258,73.124 54.287,73.103C54.301,73.093 54.303,73.074 54.319,73.066L54.41,73.02L54.562,72.456C54.556,72.457 54.552,72.463 54.546,72.463L54.452,72.463L54.218,72.463C54.187,72.463 54.155,72.458 54.123,72.447L54.112,72.444L53.905,73.222L53.912,73.222L53.943,73.206C53.967,73.195 53.99,73.206 54.014,73.201Z" style="fill:white;fill-rule:nonzero;"/>
    </g>
    <g transform="matrix(0.122169,0.0128405,-0.0148136,0.140942,2.35925,-1.25691)">
        <path d="M54.922,71.103L54.828,71.103C54.797,71.103 54.765,71.098 54.733,71.087L54.639,71.056L54.559,71.056L54.29,71.863L54.433,71.863C54.47,71.845 54.501,71.816 54.546,71.816L54.671,71.816C54.684,71.796 54.694,71.775 54.709,71.76C54.71,71.76 54.71,71.76 54.71,71.759L54.717,71.705C54.719,71.687 54.728,71.672 54.734,71.655C54.736,71.649 54.731,71.643 54.733,71.637L54.927,71.102L54.922,71.102L54.922,71.103Z" style="fill:white;fill-rule:nonzero;"/>
    </g>
    <g transform="matrix(0.122169,0.0128405,-0.0148136,0.140942,2.35925,-1.25691)">
        <path d="M53.795,73.821L53.749,74.487L53.819,74.487L53.85,74.471L53.926,74.433L54.052,74.349C54.065,74.341 54.079,74.347 54.093,74.341C54.106,74.334 54.11,74.32 54.123,74.315L54.226,74.281C54.237,74.267 54.241,74.253 54.253,74.241L54.31,73.774L54.218,73.774L54.149,73.774L54.118,73.79C54.075,73.811 54.029,73.821 53.984,73.821L53.89,73.821L53.795,73.821Z" style="fill:white;fill-rule:nonzero;"/>
    </g>
    <g transform="matrix(0.122169,0.0128405,-0.0148136,0.140942,2.35925,-1.25691)">
        <path d="M53.729,75.092C53.721,75.1 53.708,75.099 53.699,75.106L53.628,75.748C53.642,75.742 53.657,75.744 53.671,75.74C53.699,75.731 53.72,75.707 53.751,75.707L53.82,75.707L53.851,75.691L53.945,75.644C53.952,75.64 53.961,75.645 53.967,75.642C53.975,75.639 53.977,75.631 53.984,75.628L54.077,75.598C54.085,75.571 54.106,75.555 54.122,75.531C54.135,75.509 54.136,75.481 54.154,75.464L54.154,75.444C54.154,75.439 54.159,75.436 54.159,75.431C54.159,75.426 54.155,75.423 54.155,75.418L54.192,74.973L54.119,75.009L54.025,75.056C53.982,75.077 53.936,75.087 53.891,75.087L53.75,75.087L53.733,75.087L53.729,75.092Z" style="fill:white;fill-rule:nonzero;"/>
    </g>
    <g transform="matrix(0.122169,0.0128405,-0.0148136,0.140942,2.35925,-1.25691)">
        <path d="M92.998,59.351C92.992,59.332 92.979,59.319 92.977,59.299L92.958,59.287L92.817,59.193C92.817,59.193 92.817,59.192 92.816,59.191L56.394,80.258L56.394,80.882C56.394,80.916 56.369,80.938 56.358,80.968L92.68,59.984L92.735,59.902C92.755,59.873 92.79,59.868 92.817,59.847C92.842,59.826 92.857,59.794 92.89,59.784L92.966,59.759L92.966,59.74C92.966,59.709 92.99,59.689 92.998,59.661C93.007,59.632 92.998,59.6 93.016,59.574L93.06,59.508L93.06,59.506L93.06,59.504L93.016,59.438C92.998,59.411 93.007,59.38 92.998,59.351Z" style="fill:white;fill-rule:nonzero;"/>
    </g>
    <g transform="matrix(0.122169,0.0128405,-0.0148136,0.140942,2.35925,-1.25691)">
        <path d="M56.54,79.452C56.532,79.46 56.52,79.457 56.512,79.464C56.504,79.471 56.504,79.484 56.494,79.49L56.319,79.606L92.293,58.801L90.546,57.781L90.601,57.967L90.601,57.968L90.833,58.712C90.842,58.741 90.825,58.768 90.826,58.797C90.826,58.837 90.83,58.87 90.816,58.906C90.8,58.944 90.775,58.967 90.747,58.996C90.727,59.017 90.723,59.047 90.696,59.061L56.348,78.836L56.54,79.028C56.548,79.036 56.545,79.048 56.552,79.056C56.559,79.064 56.573,79.064 56.578,79.074C56.596,79.101 56.587,79.133 56.596,79.162C56.607,79.199 56.62,79.229 56.617,79.267C56.614,79.308 56.593,79.336 56.573,79.372C56.559,79.399 56.562,79.431 56.54,79.452Z" style="fill:white;fill-rule:nonzero;"/>
    </g>
    <g transform="matrix(0.122169,0.0128405,-0.0148136,0.140942,2.35925,-1.25691)">
        <path d="M55.637,78.958C55.625,78.944 55.61,78.937 55.6,78.921C55.59,78.905 55.599,78.886 55.593,78.868L55.545,78.801L55.647,79.03L55.817,79.221L55.858,79.194L55.648,78.984C55.641,78.977 55.643,78.966 55.637,78.958Z" style="fill:white;fill-rule:nonzero;"/>
    </g>
    <g transform="matrix(0.122169,0.0128405,-0.0148136,0.140942,2.35925,-1.25691)">
        <path d="M93.055,46.969C93,46.914 92.966,46.839 92.966,46.756L92.966,46.739L92.936,46.709L92.855,46.654L55.99,67.95C56.031,68.002 56.065,68.06 56.065,68.131L56.065,68.133L56.086,68.144C56.103,68.152 56.105,68.171 56.118,68.181C56.151,68.204 56.17,68.231 56.19,68.265C56.206,68.289 56.227,68.307 56.235,68.334L56.258,68.35C56.268,68.356 56.267,68.369 56.276,68.376C56.299,68.396 56.311,68.419 56.329,68.445L90.021,48.98C90.021,48.98 90.022,48.98 90.023,48.98L90.023,48.979L92.679,47.467L92.734,47.386C92.74,47.376 92.754,47.377 92.76,47.368C92.766,47.359 92.764,47.347 92.772,47.34L92.913,47.199C92.921,47.191 92.933,47.194 92.941,47.187C92.949,47.18 92.949,47.167 92.959,47.161L93,47.135C93.009,47.11 93,47.082 93.016,47.059L93.06,46.993L93.06,46.974L93.055,46.969Z" style="fill:white;fill-rule:nonzero;"/>
    </g>
    <g transform="matrix(0.122169,0.0128405,-0.0148136,0.140942,2.35925,-1.25691)">
        <path d="M90.026,58.143C90.026,58.142 90.027,58.142 90.026,58.141C90.026,58.14 90.025,58.139 90.024,58.138L89.79,57.341C89.785,57.325 89.797,57.312 89.795,57.296C89.793,57.281 89.778,57.272 89.778,57.256L89.778,57.184L89.686,56.45C89.686,56.45 89.687,56.449 89.686,56.449L89.547,55.569L89.406,54.678C89.405,54.669 89.413,54.663 89.412,54.655C89.411,54.647 89.402,54.64 89.402,54.632L89.402,53.694L89.402,52.756C89.402,52.748 89.41,52.743 89.411,52.735C89.411,52.727 89.404,52.721 89.405,52.714L89.546,51.73L89.685,50.756L89.767,49.82L56.327,69.14L56.159,69.51L56.159,69.537C56.159,69.623 56.122,69.697 56.064,69.752L55.672,70.811L55.672,70.812L55.315,71.795L55.315,71.928C55.315,71.943 55.302,71.951 55.3,71.965C55.298,71.979 55.309,71.991 55.305,72.006L55.271,72.133L55.219,72.572C55.218,72.578 55.212,72.581 55.212,72.587C55.21,72.592 55.215,72.596 55.214,72.601L54.986,73.648L54.986,75.59L55.21,76.395L55.443,77.235L55.661,77.932L55.969,78.363L90.189,58.664L90.026,58.143Z" style="fill:white;fill-rule:nonzero;"/>
    </g>
    <g transform="matrix(0.122169,0.0128405,-0.0148136,0.140942,2.35925,-1.25691)">
        <path d="M55.69,80.879L55.69,80.881C55.69,80.964 55.656,81.039 55.601,81.094L55.508,81.187C55.5,81.195 55.488,81.192 55.48,81.199C55.472,81.206 55.472,81.219 55.462,81.225L55.373,81.285L55.498,81.41C55.507,81.382 55.497,81.351 55.515,81.325L55.609,81.184C55.615,81.174 55.629,81.175 55.635,81.166C55.641,81.157 55.639,81.145 55.647,81.138L55.653,81.132L55.653,81.069C55.653,81.035 55.678,81.013 55.689,80.983C55.699,80.952 55.691,80.917 55.712,80.889L55.763,80.822L55.701,80.864L55.69,80.879Z" style="fill:white;fill-rule:nonzero;"/>
    </g>
    <g transform="matrix(0.122169,0.0128405,-0.0148136,0.140942,2.35925,-1.25691)">
        <path d="M55.466,80.265L55.466,80.225C55.466,80.142 55.5,80.067 55.555,80.012L55.56,80.007L55.56,79.944L55.56,79.908L55.509,79.781C55.502,79.789 55.488,79.787 55.481,79.793C55.472,79.801 55.473,79.814 55.463,79.819L55.418,79.849C55.402,79.891 55.398,79.938 55.367,79.969L55.25,80.086L55.172,80.203C55.164,80.215 55.151,80.22 55.142,80.23C55.137,80.236 55.139,80.244 55.134,80.249L55.04,80.343C55.022,80.361 54.996,80.358 54.976,80.369C54.955,80.383 54.948,80.407 54.923,80.415L54.85,80.439L54.777,80.512L54.958,80.802L55.04,80.785L55.108,80.739L55.113,80.734C55.115,80.724 55.122,80.716 55.124,80.707C55.133,80.678 55.124,80.646 55.142,80.62L55.236,80.479C55.248,80.461 55.271,80.46 55.286,80.446C55.301,80.43 55.302,80.408 55.32,80.395L55.418,80.33L55.466,80.265Z" style="fill:white;fill-rule:nonzero;"/>
    </g>
    <g transform="matrix(0.122169,0.0128405,-0.0148136,0.140942,2.35925,-1.25691)">
        <path d="M54.087,79.042C54.113,79.027 54.129,78.999 54.16,78.993L54.303,78.965C54.317,78.94 54.316,78.907 54.336,78.887L54.476,78.747L54.617,78.606L54.623,78.6L54.623,78.49C54.623,78.459 54.647,78.439 54.655,78.411C54.664,78.382 54.655,78.35 54.673,78.324L54.681,78.312L54.653,78.239C54.644,78.247 54.631,78.246 54.621,78.253C54.607,78.263 54.605,78.282 54.589,78.29L54.538,78.315L54.433,78.42C54.415,78.438 54.389,78.435 54.369,78.446C54.348,78.46 54.341,78.484 54.316,78.492L54.199,78.531L54.192,78.534L54.143,78.608C54.135,78.62 54.122,78.625 54.114,78.635C54.102,78.647 54.093,78.654 54.081,78.664C54.034,78.703 53.98,78.728 53.922,78.734L54.036,79.062C54.049,79.051 54.069,79.051 54.087,79.042Z" style="fill:white;fill-rule:nonzero;"/>
    </g>
    <g transform="matrix(0.122169,0.0128405,-0.0148136,0.140942,2.35925,-1.25691)">
        <path d="M53.68,76.979L53.729,76.962L53.773,76.918L53.867,76.824C53.875,76.816 53.887,76.819 53.895,76.812C53.903,76.805 53.903,76.792 53.913,76.786L54.054,76.692C54.067,76.684 54.081,76.69 54.095,76.684C54.108,76.677 54.112,76.663 54.125,76.658L54.16,76.646C54.161,76.634 54.171,76.626 54.173,76.616C54.179,76.576 54.194,76.548 54.216,76.513C54.228,76.492 54.228,76.464 54.244,76.448L54.22,76.179L54.198,76.187L54.12,76.226L54.026,76.273C53.983,76.294 53.937,76.304 53.892,76.304L53.843,76.304L53.777,76.348C53.757,76.361 53.735,76.359 53.715,76.367C53.702,76.372 53.697,76.387 53.685,76.389L53.616,76.407L53.68,76.979Z" style="fill:white;fill-rule:nonzero;"/>
    </g>
    <g transform="matrix(0.122169,0.0128405,-0.0148136,0.140942,2.35925,-1.25691)">
        <path d="M55.108,70.503L55.152,70.488L55.422,69.761L55.393,69.742L55.391,69.742C55.346,69.742 55.3,69.732 55.257,69.711L55.179,69.672L55.109,69.649L55.029,69.649L54.755,70.473C54.765,70.475 54.774,70.468 54.783,70.471L54.877,70.502L55.108,70.502L55.108,70.503Z" style="fill:white;fill-rule:nonzero;"/>
    </g>
    <g transform="matrix(0.122169,0.0128405,-0.0148136,0.140942,2.35925,-1.25691)">
        <path d="M53.799,78.094C53.819,78.075 53.825,78.047 53.851,78.034L53.945,77.987C53.952,77.983 53.961,77.988 53.967,77.985C53.975,77.982 53.977,77.974 53.984,77.971L54.057,77.947L54.148,77.856C54.153,77.851 54.162,77.853 54.167,77.848C54.177,77.78 54.196,77.714 54.243,77.667L54.336,77.574C54.351,77.559 54.372,77.563 54.389,77.553L54.389,77.525L54.347,77.218L54.269,77.271L54.198,77.342L54.104,77.436C54.086,77.454 54.06,77.451 54.04,77.462C54.019,77.476 54.012,77.5 53.987,77.508L53.846,77.555L53.743,77.589L53.785,78.103C53.789,78.1 53.794,78.098 53.799,78.094Z" style="fill:white;fill-rule:nonzero;"/>
    </g>
    <g transform="matrix(0.122169,0.0128405,-0.0148136,0.140942,2.35925,-1.25691)">
        <path d="M54.104,80.564C54.102,80.561 54.098,80.56 54.097,80.557L53.628,79.713C53.624,79.705 53.629,79.697 53.625,79.69C53.621,79.681 53.611,79.676 53.607,79.667L53.232,78.589C53.228,78.576 53.237,78.565 53.234,78.552C53.231,78.538 53.217,78.531 53.216,78.516L53.122,77.392L52.982,76.181C52.981,76.174 52.987,76.17 52.987,76.163C52.987,76.157 52.98,76.153 52.98,76.146C52.98,76.139 52.987,76.136 52.987,76.129C52.987,76.123 52.981,76.118 52.982,76.112L53.123,74.848L53.216,73.499C53.217,73.484 53.224,73.472 53.227,73.457C53.228,73.452 53.224,73.447 53.225,73.442L53.6,72.036C53.601,72.032 53.605,72.031 53.607,72.027C53.607,72.024 53.605,72.021 53.606,72.018L54.075,70.612L54.544,69.206C54.546,69.2 54.553,69.198 54.556,69.192C54.559,69.186 54.554,69.179 54.557,69.173L54.56,69.167L54.56,69.166L54.561,69.166L55.097,68.016L7.938,40.754L7.385,41.858L6.924,43.241L6.462,44.63L6.094,46.012L6.002,47.339L6.002,47.34L5.91,48.629L6.002,49.824L6.092,50.908L6.447,51.886L6.898,52.742L7.343,53.453L7.993,54.06L54.205,80.734L54.103,80.571C54.104,80.569 54.104,80.566 54.104,80.564Z" style="fill:white;fill-rule:nonzero;"/>
    </g>
    <g transform="matrix(0.122169,0.0128405,-0.0148136,0.140942,2.35925,-1.25691)">
        <path d="M54.804,79.685L54.866,79.623C54.872,79.587 54.894,79.562 54.912,79.53C54.931,79.495 54.943,79.463 54.974,79.438C54.983,79.43 54.982,79.417 54.992,79.412L55.011,79.4C55.013,79.38 55.026,79.367 55.032,79.348C55.041,79.319 55.032,79.287 55.05,79.261L55.077,79.22L55.008,79.065L54.903,79.17L54.832,79.241C54.826,79.279 54.811,79.306 54.789,79.34C54.768,79.374 54.75,79.401 54.717,79.424C54.703,79.434 54.701,79.453 54.685,79.461L54.591,79.508C54.572,79.517 54.553,79.517 54.533,79.522C54.526,79.524 54.523,79.532 54.515,79.534L54.369,79.563L54.29,79.64C54.286,79.644 54.281,79.642 54.277,79.646L54.463,79.98L54.476,79.966C54.494,79.948 54.52,79.951 54.54,79.94C54.561,79.926 54.568,79.902 54.593,79.894L54.666,79.87L54.687,79.849L54.765,79.732C54.771,79.722 54.785,79.723 54.791,79.714C54.797,79.705 54.796,79.692 54.804,79.685Z" style="fill:white;fill-rule:nonzero;"/>
    </g>
    <g transform="matrix(0.122169,0.0128405,-0.0148136,0.140942,2.35925,-1.25691)">
        <path d="M55.794,68.787L55.794,68.761L55.787,68.756C55.777,68.75 55.778,68.737 55.769,68.73C55.739,68.706 55.726,68.673 55.707,68.638C55.698,68.621 55.682,68.61 55.677,68.592C55.653,68.573 55.626,68.558 55.609,68.531L55.556,68.451L55.267,69.07L55.391,69.112C55.398,69.114 55.4,69.123 55.408,69.126C55.415,69.129 55.424,69.124 55.43,69.128L55.461,69.144L55.483,69.144C55.514,69.144 55.534,69.168 55.562,69.176C55.588,69.184 55.618,69.177 55.642,69.193L55.798,68.849C55.798,68.843 55.792,68.84 55.792,68.834C55.792,68.823 55.797,68.813 55.799,68.802C55.8,68.796 55.794,68.793 55.794,68.787Z" style="fill:white;fill-rule:nonzero;"/>
    </g>
</svg>
